<svg version="1.1" id="Layer_1" xmlns="http://www.w3.org/2000/svg" xmlns:xlink="http://www.w3.org/1999/xlink" x="0px" y="0px"
	 width="100%" viewBox="0 0 870 1156" enable-background="new 0 0 870 1156" xml:space="preserve">
<path fill="#FFFFFF" opacity="1.000000" stroke="none" 
	d="
M424.000000,1157.000000 
	C282.666656,1157.000000 141.833328,1157.000000 1.000000,1157.000000 
	C1.000000,771.666687 1.000000,386.333344 1.000000,1.000000 
	C291.000000,1.000000 581.000000,1.000000 871.000000,1.000000 
	C871.000000,386.333344 871.000000,771.666687 871.000000,1157.000000 
	C722.166687,1157.000000 573.333313,1157.000000 424.000000,1157.000000 
M269.955841,852.111267 
	C287.496796,850.989380 305.049133,850.016479 322.573639,848.679077 
	C330.651672,848.062622 338.675232,846.732788 347.616608,845.962402 
	C348.448456,845.957825 349.294800,846.052795 350.110016,845.934082 
	C370.286346,842.995850 390.522064,840.405396 410.620392,837.003784 
	C457.061371,829.143921 502.605682,817.797241 546.346069,800.015686 
	C583.446472,784.933472 618.149536,765.954224 646.553589,736.985779 
	C647.464722,736.056519 648.950623,735.690796 650.126221,735.778809 
	C641.984924,750.096985 631.474976,762.523682 619.455872,773.679138 
	C593.611633,797.666382 563.323608,814.529114 530.993958,827.885010 
	C465.417633,854.975647 396.467133,867.917419 326.404968,876.037964 
	C318.247864,876.983459 310.072266,877.769409 300.625153,878.764160 
	C422.561218,921.220215 597.074707,896.434143 706.285645,751.446838 
	C808.532104,615.705566 791.402832,447.415222 727.816467,347.981567 
	C714.810120,353.793823 702.228210,360.375214 688.992126,365.138763 
	C658.089111,376.260529 629.114075,390.681396 603.011169,410.789612 
	C597.802429,414.802063 591.814819,418.093933 585.719666,420.568420 
	C581.272461,422.373810 576.014465,423.132111 571.196106,422.877533 
	C560.820740,422.329376 556.670593,410.088104 562.386414,403.786407 
	C568.191040,397.386749 573.528137,390.563049 579.679016,384.237915 
	C584.548767,392.935272 591.290039,396.102417 600.948181,392.397766 
	C608.931824,389.335480 616.803955,385.340515 623.781860,380.420502 
	C643.683655,366.387970 663.845581,353.054443 686.688293,344.053070 
	C704.924622,336.866882 723.123474,329.436890 740.758667,320.914551 
	C759.564636,311.826416 773.765808,297.809784 779.888000,277.062622 
	C785.273926,258.810303 786.482056,240.026611 785.836548,221.169724 
	C785.543823,212.619125 783.141846,204.208878 774.271667,200.243729 
	C769.673950,198.188492 764.621216,197.052460 759.686218,195.866623 
	C729.852722,188.697906 699.476196,184.512909 668.934509,183.310349 
	C638.757629,182.122162 608.444153,181.927094 578.289185,185.219498 
	C574.202271,185.665726 570.141113,186.347198 565.159180,186.860596 
	C555.484985,187.900146 545.810791,188.939697 535.659485,189.415497 
	C475.487854,168.393539 413.878998,163.235916 351.237061,174.423645 
	C269.918854,188.946915 200.724503,226.665527 145.513245,288.090424 
	C70.895134,371.106262 40.650242,468.945740 53.414230,579.698059 
	C59.316132,630.908447 76.632706,678.511047 103.159859,723.117737 
	C101.999924,724.733093 100.884865,726.382874 99.673203,727.958496 
	C86.206207,745.469910 74.514442,764.032593 66.849396,784.858154 
	C60.701519,801.561768 64.800552,816.027039 78.710213,827.113159 
	C90.813942,836.759888 105.042343,841.688599 120.684036,845.208008 
	C144.471298,850.647644 168.575867,853.126770 193.770401,853.183899 
	C209.073471,853.250427 224.378632,853.496155 239.678879,853.319031 
	C249.466507,853.205750 259.246918,852.467896 269.955841,852.111267 
z"/>
<path fill="#484A52" opacity="1.000000" stroke="none" 
	d="
M103.481438,722.578552 
	C76.632706,678.511047 59.316132,630.908447 53.414230,579.698059 
	C40.650242,468.945740 70.895134,371.106262 145.513245,288.090424 
	C200.724503,226.665527 269.918854,188.946915 351.237061,174.423645 
	C413.878998,163.235916 475.487854,168.393539 535.504028,189.808716 
	C531.757874,190.785553 528.154419,191.299820 524.578979,191.965347 
	C512.052368,194.297058 499.535431,196.680878 486.608154,199.026062 
	C480.073334,200.336411 473.865845,201.378738 467.831238,203.046585 
	C446.504333,208.940903 425.236633,215.049347 403.575256,221.102829 
	C389.513702,226.115524 375.620605,230.615662 362.186066,236.215836 
	C346.619171,242.704880 331.455322,250.160751 315.760681,257.210388 
	C298.681000,267.087708 281.548309,276.329132 265.338562,286.975769 
	C245.856400,299.771729 228.458908,314.915894 219.713287,337.940674 
	C211.678848,345.421570 205.871124,354.055389 202.005722,363.967987 
	C187.948837,400.016052 179.571762,437.414154 177.183594,475.963989 
	C175.677124,500.281525 183.713394,521.155396 204.176971,536.012390 
	C218.885864,546.691345 235.669632,552.680786 253.236679,555.916443 
	C293.612366,563.353333 334.173218,569.781311 374.567780,577.120544 
	C420.508270,585.467346 466.173859,595.129333 510.835693,608.979370 
	C530.214294,614.988953 549.389648,621.601257 566.862366,632.197144 
	C573.852783,636.436340 580.585571,641.110718 583.994934,649.292908 
	C578.307251,653.536865 572.978210,657.832275 567.168579,661.329468 
	C528.808777,684.420715 486.663147,697.419983 443.312805,706.918945 
	C425.331482,710.859009 407.126160,713.776794 388.602417,717.085144 
	C380.461212,717.991455 372.756744,719.133789 365.016052,719.920044 
	C347.051849,721.744690 329.070160,723.397461 310.631226,725.056763 
	C294.643890,725.642944 279.124115,726.387268 263.596802,726.906433 
	C253.997375,727.227417 244.386520,727.205627 234.328979,727.291382 
	C216.603485,726.980713 199.329803,726.716492 182.196564,726.070312 
	C183.330551,721.991394 183.897385,718.388306 180.336945,715.427429 
	C185.128357,711.890869 190.120117,709.082336 194.212738,705.300720 
	C197.597382,702.173218 200.841202,698.255310 202.483688,694.039490 
	C204.607254,688.588867 201.277496,684.415344 195.498505,685.174683 
	C187.351990,686.245117 179.361115,688.500183 170.898438,690.176025 
	C166.979034,691.093750 163.377472,691.848450 159.965118,693.113525 
	C139.901764,700.551453 117.825104,704.170471 103.481438,722.578552 
z"/>
<path fill="#494B53" opacity="1.000000" stroke="none" 
	d="
M579.070007,383.925079 
	C573.528137,390.563049 568.191040,397.386749 562.386414,403.786407 
	C556.670593,410.088104 560.820740,422.329376 571.196106,422.877533 
	C576.014465,423.132111 581.272461,422.373810 585.719666,420.568420 
	C591.814819,418.093933 597.802429,414.802063 603.011169,410.789612 
	C629.114075,390.681396 658.089111,376.260529 688.992126,365.138763 
	C702.228210,360.375214 714.810120,353.793823 727.816467,347.981567 
	C791.402832,447.415222 808.532104,615.705566 706.285645,751.446838 
	C597.074707,896.434143 422.561218,921.220215 300.625153,878.764160 
	C310.072266,877.769409 318.247864,876.983459 326.404968,876.037964 
	C396.467133,867.917419 465.417633,854.975647 530.993958,827.885010 
	C563.323608,814.529114 593.611633,797.666382 619.455872,773.679138 
	C631.474976,762.523682 641.984924,750.096985 650.115479,735.394531 
	C650.104797,735.010254 650.049316,735.071350 650.377197,734.969604 
	C650.994080,734.247253 651.283020,733.626587 651.862488,732.867432 
	C653.825378,730.057922 655.281128,727.218750 657.204346,724.742615 
	C672.830566,704.623779 684.260254,682.468689 687.428101,657.006958 
	C688.993958,644.421265 689.619446,631.359741 688.087585,618.829224 
	C685.623474,598.673340 674.337097,582.291870 660.293091,568.240845 
	C633.298279,541.232361 599.566467,526.086670 563.401001,516.134216 
	C539.739990,509.622955 515.699402,504.481659 491.797485,498.859833 
	C482.619904,496.701233 473.355469,494.912079 463.923645,492.631958 
	C440.804291,486.535217 417.891876,480.761078 394.729401,474.712860 
	C389.836151,473.199738 385.168243,472.045990 380.554199,470.706635 
	C362.392548,465.434906 344.247833,460.104767 325.851410,454.542480 
	C317.183167,450.563751 308.642792,447.077209 300.391296,443.005249 
	C296.721039,441.194031 293.450195,438.320129 294.363098,433.183716 
	C300.031982,429.077026 305.211517,424.855530 310.758972,421.191040 
	C351.910797,394.007080 397.560242,377.492615 444.884796,365.041534 
	C480.811768,355.589233 517.336365,349.275909 554.247437,345.397675 
	C573.429932,343.382233 592.731079,342.495361 611.800354,341.374268 
	C607.573547,345.530670 603.179260,349.115204 599.546997,353.352844 
	C591.527222,362.709198 581.018677,370.480988 579.070007,383.925079 
z"/>
<path fill="#8F9ACD" opacity="1.000000" stroke="none" 
	d="
M464.130585,492.954590 
	C473.355469,494.912079 482.619904,496.701233 491.797485,498.859833 
	C515.699402,504.481659 539.739990,509.622955 563.401001,516.134216 
	C599.566467,526.086670 633.298279,541.232361 660.293091,568.240845 
	C674.337097,582.291870 685.623474,598.673340 688.087585,618.829224 
	C689.619446,631.359741 688.993958,644.421265 687.428101,657.006958 
	C684.260254,682.468689 672.830566,704.623779 657.204346,724.742615 
	C655.281128,727.218750 653.825378,730.057922 651.473694,732.926392 
	C650.546082,733.773010 650.297668,734.422180 650.049316,735.071350 
	C650.049316,735.071350 650.104797,735.010254 650.136719,735.036377 
	C648.950623,735.690796 647.464722,736.056519 646.553589,736.985779 
	C618.149536,765.954224 583.446472,784.933472 546.346069,800.015686 
	C502.605682,817.797241 457.061371,829.143921 410.620392,837.003784 
	C390.522064,840.405396 370.286346,842.995850 350.110016,845.934082 
	C349.294800,846.052795 348.448456,845.957825 347.241394,845.468445 
	C347.380127,843.059753 347.798279,841.113159 348.422241,839.234985 
	C361.941895,798.538513 375.484558,757.849731 389.022705,717.159424 
	C407.126160,713.776794 425.331482,710.859009 443.312805,706.918945 
	C486.663147,697.419983 528.808777,684.420715 567.168579,661.329468 
	C572.978210,657.832275 578.307251,653.536865 584.329712,649.255005 
	C590.615417,643.248840 596.708069,637.851318 602.154785,631.866089 
	C606.328552,627.279602 606.174500,621.741272 602.669373,616.656311 
	C600.801086,613.945923 598.714111,611.142395 596.100647,609.239685 
	C590.472229,605.142090 584.697876,601.098572 578.527039,597.918091 
	C553.224304,584.876892 525.971619,577.226990 498.611084,570.060486 
	C480.136658,565.221497 461.490784,561.037109 443.027863,556.160156 
	C450.132904,534.825134 457.131744,513.889893 464.130585,492.954590 
z"/>
<path fill="#8F9ACD" opacity="1.000000" stroke="none" 
	d="
M579.374512,384.081482 
	C581.018677,370.480988 591.527222,362.709198 599.546997,353.352844 
	C603.179260,349.115204 607.573547,345.530670 611.969849,341.081390 
	C624.385437,330.947296 636.453186,321.381714 649.481140,311.055054 
	C646.777161,310.724457 644.963440,310.239044 643.178406,310.328094 
	C633.047974,310.833527 622.906372,311.264252 612.802612,312.121033 
	C596.738220,313.483307 580.674561,314.934509 564.659363,316.772583 
	C550.321167,318.418213 536.048889,320.637146 521.786194,322.224609 
	C522.165955,320.566345 522.440735,319.264557 522.857849,318.010071 
	C532.713684,288.365814 542.624146,258.739685 552.435852,229.080826 
	C557.074707,215.058487 561.529663,200.975311 566.067993,186.919724 
	C570.141113,186.347198 574.202271,185.665726 578.289185,185.219498 
	C608.444153,181.927094 638.757629,182.122162 668.934509,183.310349 
	C699.476196,184.512909 729.852722,188.697906 759.686218,195.866623 
	C764.621216,197.052460 769.673950,198.188492 774.271667,200.243729 
	C783.141846,204.208878 785.543823,212.619125 785.836548,221.169724 
	C786.482056,240.026611 785.273926,258.810303 779.888000,277.062622 
	C773.765808,297.809784 759.564636,311.826416 740.758667,320.914551 
	C723.123474,329.436890 704.924622,336.866882 686.688293,344.053070 
	C663.845581,353.054443 643.683655,366.387970 623.781860,380.420502 
	C616.803955,385.340515 608.931824,389.335480 600.948181,392.397766 
	C591.290039,396.102417 584.548767,392.935272 579.374512,384.081482 
z"/>
<path fill="#3AC6F0" opacity="1.000000" stroke="none" 
	d="
M565.613586,186.890152 
	C561.529663,200.975311 557.074707,215.058487 552.435852,229.080826 
	C542.624146,258.739685 532.713684,288.365814 522.857849,318.010071 
	C522.440735,319.264557 522.165955,320.566345 521.412720,322.369476 
	C508.684784,325.424591 496.306519,327.689453 484.069397,330.556610 
	C469.272583,334.023468 454.595184,338.000214 439.887543,341.368896 
	C440.434631,339.063232 440.865265,337.112885 441.500061,335.231384 
	C452.133087,303.716217 462.837128,272.224884 473.423553,240.694092 
	C478.071533,226.850494 482.491364,212.930313 487.014801,199.044922 
	C499.535431,196.680878 512.052368,194.297058 524.578979,191.965347 
	C528.154419,191.299820 531.757874,190.785553 535.742554,190.090576 
	C545.810791,188.939697 555.484985,187.900146 565.613586,186.890152 
z"/>
<path fill="#ECB32B" opacity="1.000000" stroke="none" 
	d="
M182.056122,726.452271 
	C199.329803,726.716492 216.603485,726.980713 234.201996,727.597717 
	C234.166550,729.056274 233.812225,730.164062 233.445129,731.267639 
	C219.952316,771.830383 206.458374,812.392761 192.964554,852.955139 
	C168.575867,853.126770 144.471298,850.647644 120.356438,844.657593 
	C127.841774,820.690552 135.661621,797.276245 143.465836,773.856750 
	C152.752136,745.989807 162.025024,718.118286 171.303711,690.248779 
	C179.361115,688.500183 187.351990,686.245117 195.498505,685.174683 
	C201.277496,684.415344 204.607254,688.588867 202.483688,694.039490 
	C200.841202,698.255310 197.597382,702.173218 194.212738,705.300720 
	C190.120117,709.082336 185.128357,711.890869 180.070648,715.523804 
	C176.409256,718.899963 173.202972,721.872742 169.996674,724.845581 
	C170.289337,725.381165 170.582016,725.916687 170.874680,726.452271 
	C174.601822,726.452271 178.328979,726.452271 182.056122,726.452271 
z"/>
<path fill="#3AC6F0" opacity="1.000000" stroke="none" 
	d="
M388.602448,717.085144 
	C375.484558,757.849731 361.941895,798.538513 348.422241,839.234985 
	C347.798279,841.113159 347.380127,843.059753 346.794830,845.350464 
	C338.675232,846.732788 330.651672,848.062622 322.573639,848.679077 
	C305.049133,850.016479 287.496796,850.989380 269.525818,851.684448 
	C277.928528,824.789246 286.770874,798.324097 295.590240,771.851257 
	C300.777588,756.280457 305.928375,740.697388 311.095581,725.119873 
	C329.070160,723.397461 347.051849,721.744690 365.016052,719.920044 
	C372.756744,719.133789 380.461212,717.991455 388.602448,717.085144 
z"/>
<path fill="#2BB77D" opacity="1.000000" stroke="none" 
	d="
M310.631226,725.056763 
	C305.928375,740.697388 300.777588,756.280457 295.590240,771.851257 
	C286.770874,798.324097 277.928528,824.789246 269.063171,851.633789 
	C259.246918,852.467896 249.466507,853.205750 239.678879,853.319031 
	C224.378632,853.496155 209.073471,853.250427 193.367477,853.069519 
	C206.458374,812.392761 219.952316,771.830383 233.445129,731.267639 
	C233.812225,730.164062 234.166550,729.056274 234.653809,727.644043 
	C244.386520,727.205627 253.997375,727.227417 263.596802,726.906433 
	C279.124115,726.387268 294.643890,725.642944 310.631226,725.056763 
z"/>
<path fill="#E11D5C" opacity="1.000000" stroke="none" 
	d="
M170.898438,690.176025 
	C162.025024,718.118286 152.752136,745.989807 143.465836,773.856750 
	C135.661621,797.276245 127.841774,820.690552 120.003265,844.487305 
	C105.042343,841.688599 90.813942,836.759888 78.710213,827.113159 
	C64.800552,816.027039 60.701519,801.561768 66.849396,784.858154 
	C74.514442,764.032593 86.206207,745.469910 99.673203,727.958496 
	C100.884865,726.382874 101.999924,724.733093 103.320648,722.848145 
	C117.825104,704.170471 139.901764,700.551453 159.965118,693.113525 
	C163.377472,691.848450 166.979034,691.093750 170.898438,690.176025 
z"/>
<path fill="#ECB32B" opacity="1.000000" stroke="none" 
	d="
M294.044159,433.326843 
	C293.450195,438.320129 296.721039,441.194031 300.391296,443.005249 
	C308.642792,447.077209 317.183167,450.563751 325.670227,454.888428 
	C317.376587,480.596954 309.018707,505.705627 300.265717,530.908569 
	C286.699982,528.335205 273.307678,526.440979 260.430359,522.750000 
	C250.515182,519.908081 241.247406,514.807434 231.779434,510.337219 
	C232.112823,509.002808 232.299179,508.022552 232.612701,507.084808 
	C253.243576,445.379028 273.890564,383.678619 294.521729,321.972961 
	C301.738892,300.387268 308.919312,278.789307 316.116486,257.196930 
	C331.455322,250.160751 346.619171,242.704880 362.186066,236.215836 
	C375.620605,230.615662 389.513702,226.115524 403.501587,221.455109 
	C393.818970,251.762817 383.831146,281.741913 373.861267,311.726990 
	C366.516785,333.816010 359.195770,355.912811 351.631165,378.244293 
	C343.656433,383.332062 335.747284,387.936615 328.212372,393.088531 
	C316.794830,400.895203 305.697205,409.263367 297.907043,420.913513 
	C295.597229,424.367767 295.276398,429.152039 294.044159,433.326843 
z"/>
<path fill="#FEFEFE" opacity="1.000000" stroke="none" 
	d="
M231.691742,510.711182 
	C241.247406,514.807434 250.515182,519.908081 260.430359,522.750000 
	C273.307678,526.440979 286.699982,528.335205 300.625916,531.145508 
	C316.968597,533.872864 332.548340,536.504517 348.146423,539.022888 
	C356.322571,540.343079 364.530823,541.464600 373.076050,542.922241 
	C396.592224,547.632385 419.756927,552.096130 442.921631,556.559875 
	C461.490784,561.037109 480.136658,565.221497 498.611084,570.060486 
	C525.971619,577.226990 553.224304,584.876892 578.527039,597.918091 
	C584.697876,601.098572 590.472229,605.142090 596.100647,609.239685 
	C598.714111,611.142395 600.801086,613.945923 602.669373,616.656311 
	C606.174500,621.741272 606.328552,627.279602 602.154785,631.866089 
	C596.708069,637.851318 590.615417,643.248840 584.466003,648.937256 
	C580.585571,641.110718 573.852783,636.436340 566.862366,632.197144 
	C549.389648,621.601257 530.214294,614.988953 510.835693,608.979370 
	C466.173859,595.129333 420.508270,585.467346 374.567780,577.120544 
	C334.173218,569.781311 293.612366,563.353333 253.236679,555.916443 
	C235.669632,552.680786 218.885864,546.691345 204.176971,536.012390 
	C183.713394,521.155396 175.677124,500.281525 177.183594,475.963989 
	C179.571762,437.414154 187.948837,400.016052 202.005722,363.967987 
	C205.871124,354.055389 211.678848,345.421570 219.675842,338.328125 
	C211.294479,361.708954 205.396057,385.596802 201.240997,409.895782 
	C198.212463,427.606964 195.153351,445.414062 198.012344,463.490234 
	C201.380371,484.784882 212.557663,500.610840 231.691742,510.711182 
z"/>
<path fill="#E11D5C" opacity="1.000000" stroke="none" 
	d="
M231.779434,510.337219 
	C212.557663,500.610840 201.380371,484.784882 198.012344,463.490234 
	C195.153351,445.414062 198.212463,427.606964 201.240997,409.895782 
	C205.396057,385.596802 211.294479,361.708954 219.987564,338.180420 
	C228.458908,314.915894 245.856400,299.771729 265.338562,286.975769 
	C281.548309,276.329132 298.681000,267.087708 315.760681,257.210388 
	C308.919312,278.789307 301.738892,300.387268 294.521729,321.972961 
	C273.890564,383.678619 253.243576,445.379028 232.612701,507.084808 
	C232.299179,508.022552 232.112823,509.002808 231.779434,510.337219 
z"/>
<path fill="#2BB77D" opacity="1.000000" stroke="none" 
	d="
M351.864288,378.006165 
	C359.195770,355.912811 366.516785,333.816010 373.861267,311.726990 
	C383.831146,281.741913 393.818970,251.762817 403.872803,221.428894 
	C425.236633,215.049347 446.504333,208.940903 467.831238,203.046585 
	C473.865845,201.378738 480.073334,200.336411 486.608154,199.026062 
	C482.491364,212.930313 478.071533,226.850494 473.423553,240.694092 
	C462.837128,272.224884 452.133087,303.716217 441.500061,335.231384 
	C440.865265,337.112885 440.434631,339.063232 439.578278,341.568848 
	C428.427887,345.900970 417.374634,349.089508 406.840057,353.513214 
	C388.347382,361.278839 370.172363,369.800934 351.864288,378.006165 
z"/>
<path fill="#FCFAF7" opacity="1.000000" stroke="none" 
	d="
M182.196564,726.070312 
	C178.328979,726.452271 174.601822,726.452271 170.874680,726.452271 
	C170.582016,725.916687 170.289337,725.381165 169.996674,724.845581 
	C173.202972,721.872742 176.409256,718.899963 179.881836,715.830688 
	C183.897385,718.388306 183.330551,721.991394 182.196564,726.070312 
z"/>
<path fill="#FDFEFE" opacity="1.000000" stroke="none" 
	d="
M351.631165,378.244293 
	C370.172363,369.800934 388.347382,361.278839 406.840057,353.513214 
	C417.374634,349.089508 428.427887,345.900970 439.556824,341.956238 
	C454.595184,338.000214 469.272583,334.023468 484.069397,330.556610 
	C496.306519,327.689453 508.684784,325.424591 521.374023,322.747986 
	C536.048889,320.637146 550.321167,318.418213 564.659363,316.772583 
	C580.674561,314.934509 596.738220,313.483307 612.802612,312.121033 
	C622.906372,311.264252 633.047974,310.833527 643.178406,310.328094 
	C644.963440,310.239044 646.777161,310.724457 649.481140,311.055054 
	C636.453186,321.381714 624.385437,330.947296 612.148193,340.805786 
	C592.731079,342.495361 573.429932,343.382233 554.247437,345.397675 
	C517.336365,349.275909 480.811768,355.589233 444.884796,365.041534 
	C397.560242,377.492615 351.910797,394.007080 310.758972,421.191040 
	C305.211517,424.855530 300.031982,429.077026 294.363098,433.183716 
	C295.276398,429.152039 295.597229,424.367767 297.907043,420.913513 
	C305.697205,409.263367 316.794830,400.895203 328.212372,393.088531 
	C335.747284,387.936615 343.656433,383.332062 351.631165,378.244293 
z"/>
<path fill="#2BB77D" opacity="1.000000" stroke="none" 
	d="
M372.724579,542.675842 
	C364.530823,541.464600 356.322571,540.343079 348.146423,539.022888 
	C332.548340,536.504517 316.968597,533.872864 301.021027,531.051270 
	C309.018707,505.705627 317.376587,480.596954 325.915649,455.142273 
	C344.247833,460.104767 362.392548,465.434906 380.554199,470.706635 
	C385.168243,472.045990 389.836151,473.199738 394.693237,475.089508 
	C390.662292,488.100342 386.325439,500.429840 382.201660,512.830200 
	C378.908081,522.734009 375.873901,532.724060 372.724579,542.675842 
z"/>
<path fill="#3BC6F0" opacity="1.000000" stroke="none" 
	d="
M373.076050,542.922241 
	C375.873901,532.724060 378.908081,522.734009 382.201660,512.830200 
	C386.325439,500.429840 390.662292,488.100342 394.943329,475.363617 
	C417.891876,480.761078 440.804291,486.535217 463.923645,492.631958 
	C457.131744,513.889893 450.132904,534.825134 443.027863,556.160156 
	C419.756927,552.096130 396.592224,547.632385 373.076050,542.922241 
z"/>
<path fill="#FFFFFF" opacity="1.000000" stroke="none" 
	d="
M650.377197,734.969604 
	C650.297668,734.422180 650.546082,733.773010 651.183228,733.064880 
	C651.283020,733.626587 650.994080,734.247253 650.377197,734.969604 
z"/>
</svg>