<?xml version="1.0" standalone="yes"?>
<svg xmlns="http://www.w3.org/2000/svg" width="870" height="1156">
<path style="fill:#ffffff; stroke:none;" d="M0 0L0 1156L870 1156L870 0L0 0z"/>
<path style="fill:#edb32c; stroke:none;" d="M388 168L388 169L391 169L388 168z"/>
<path style="fill:#6ea8c4; stroke:none;" d="M391 168L391 169L396 169L391 168z"/>
<path style="fill:#494b53; stroke:none;" d="M102 721C108.051 717.936 111.889 711.7 118 708.312C134.337 699.255 153.111 693.793 171 688.71C178.661 686.533 212.153 678.797 199.297 697.996C194.513 705.141 185.415 708.532 179 714L182 726C286.298 726 393.829 725.692 494 692.333C517.899 684.375 541.163 675.256 563 662.576C567.724 659.832 583.662 652.783 581.762 645.996C579.431 637.665 567.028 631.492 560 627.781C538.11 616.223 513.826 608.604 490 602.151C433.105 586.742 375.108 575.932 317 566.247C281.03 560.252 240.867 558.182 209 538.796C156.094 506.61 178.243 429.743 194.001 382C200.069 363.615 208.472 351.549 219.351 336C224.828 328.172 227.609 319.354 234.174 312C255.528 288.075 285.612 270.947 314 256.753C361.562 232.972 412.122 214.557 464 202.651C487.132 197.343 511.033 194.658 534 189C520.352 180.412 499.633 177.926 484 174.8C434.956 164.993 383.812 165.794 335 176.576C292.619 185.937 252.629 202.809 216 226.053C106.536 295.517 41.2431 425.817 50.0895 555C54.1192 613.845 72.0639 670.238 102 721z"/>
<path style="fill:#6ea8c4; stroke:none;" d="M432 168L432 169L437 169L432 168z"/>
<path style="fill:#edb32c; stroke:none;" d="M437 168L437 169L440 169L437 168M376.667 169.333L377.333 169.667L376.667 169.333z"/>
<path style="fill:#6ea8c4; stroke:none;" d="M378 169L378 170L381 170L378 169M446 169L446 170L450 170L446 169z"/>
<path style="fill:#edb32c; stroke:none;" d="M450 169L451 170L450 169M368 170L369 171L368 170z"/>
<path style="fill:#6ea8c4; stroke:none;" d="M369.667 170.333L370.333 170.667L369.667 170.333M456 170L456 171L459 171L456 170z"/>
<path style="fill:#edb32c; stroke:none;" d="M459 170L460 171L459 170M360 171L361 172L360 171z"/>
<path style="fill:#6ea8c4; stroke:none;" d="M361 171L361 172L364 172L361 171M464.667 171.333L465.333 171.667L464.667 171.333z"/>
<path style="fill:#edb32c; stroke:none;" d="M466 171L467 172L466 171M354 172L355 173L354 172z"/>
<path style="fill:#6ea8c4; stroke:none;" d="M355.667 172.333L356.333 172.667L355.667 172.333M471.667 172.333L472.333 172.667L471.667 172.333z"/>
<path style="fill:#edb32c; stroke:none;" d="M473 172L474 173L473 172M348 173L349 174L348 173z"/>
<path style="fill:#6ea8c4; stroke:none;" d="M349.667 173.333L350.333 173.667L349.667 173.333M477.667 173.333L478.333 173.667L477.667 173.333z"/>
<path style="fill:#edb32c; stroke:none;" d="M343 174L344 175L343 174z"/>
<path style="fill:#6ea8c4; stroke:none;" d="M344 174L345 175L344 174M482.667 174.333L483.333 174.667L482.667 174.333z"/>
<path style="fill:#edb32c; stroke:none;" d="M338 175L339 176L338 175z"/>
<path style="fill:#6ea8c4; stroke:none;" d="M339 175L340 176L339 175M487.667 175.333L488.333 175.667L487.667 175.333M334.667 176.333L335.333 176.667L334.667 176.333M492.667 176.333L493.333 176.667L492.667 176.333z"/>
<path style="fill:#edb32c; stroke:none;" d="M329 177L330 178L329 177z"/>
<path style="fill:#6ea8c4; stroke:none;" d="M330 177L331 178L330 177M496.667 177.333L497.333 177.667L496.667 177.333M325.667 178.333L326.333 178.667L325.667 178.333M501 178L502 179L501 178M321.667 179.333L322.333 179.667L321.667 179.333M505 179L506 180L505 179M318 180L319 181L318 180M508.667 180.333L509.333 180.667L508.667 180.333M314.667 181.333L315.333 181.667L314.667 181.333M512 181L513 182L512 181M311 182L312 183L311 182M515.667 182.333L516.333 182.667L515.667 182.333M351 377C372.741 370.12 393.167 356.924 415 349.344C466.205 331.568 519.151 320.599 573 314.834C597.664 312.194 623.155 308.697 648 310L648 312C639.784 315.115 632.88 321.791 626 327.12C602.721 345.149 588.354 365.666 572 389L579 383C583.509 394.388 595.233 393.642 605 389.934C624.713 382.451 640.652 366.099 659 355.862C695.668 335.404 752.158 329.345 773.677 289C781.079 275.121 783.028 259.412 784.089 244C784.85 232.95 786.685 220.754 782.892 210C777.725 195.349 757.939 194.388 745 191.8C706.524 184.106 668.112 182 629 182C572.001 182 514.348 189.857 459 203.627C445.592 206.962 432.191 210.542 419 214.659C414.257 216.139 407.149 216.871 403.51 220.51C394.989 229.031 392.457 251.63 388.667 263C380.211 288.368 371.454 313.638 363 339C358.912 351.264 352.89 364.204 351 377M307.667 183.333L308.333 183.667L307.667 183.333M519 183L520 184L519 183M304 184L305 185L304 184M522 184L523 185L522 184M301 185L302 186L301 185M525.667 185.333L526.333 185.667L525.667 185.333M298 186L299 187L298 186M528.667 186.333L529.333 186.667L528.667 186.333M295 187L296 188L295 187M531.667 187.333L532.333 187.667L531.667 187.333M292 188L293 189L292 188M289 189L290 190L289 189M287 190L288 191L287 190M284 191L285 192L284 191M281 192L282 193L281 192M279 193L280 194L279 193M276 194L277 195L276 194M274 195L275 196L274 195z"/>
<path style="fill:#edb32c; stroke:none;" d="M271 196L272 197L271 196z"/>
<path style="fill:#6ea8c4; stroke:none;" d="M272 196L273 197L272 196M269 197L270 198L269 197M267 198L268 199L267 198M265 199L266 200L265 199z"/>
<path style="fill:#edb32c; stroke:none;" d="M262 200L263 201L262 200z"/>
<path style="fill:#6ea8c4; stroke:none;" d="M260 201L261 202L260 201M258 202L259 203L258 202M256 203L257 204L256 203M254 204L255 205L254 204M252 205L253 206L252 205M250 206L251 207L250 206M248 207L249 208L248 207M246 208L247 209L246 208M244 209L245 210L244 209M242 210L243 211L242 210z"/>
<path style="fill:#edb32c; stroke:none;" d="M240 211L241 212L240 211z"/>
<path style="fill:#6ea8c4; stroke:none;" d="M237 213L238 214L237 213M235 214L236 215L235 214M233 215L234 216L233 215z"/>
<path style="fill:#edb32c; stroke:none;" d="M231 216L232 217L231 216z"/>
<path style="fill:#6ea8c4; stroke:none;" d="M228 218L229 219L228 218z"/>
<path style="fill:#edb32c; stroke:none;" d="M226 219L227 220L226 219M229 510C251.461 519.351 275.124 529.487 300 530L325 453C314.056 450.013 290.181 443.129 293.391 428C297.011 410.942 320.402 396.675 334 387.95C338.842 384.843 347.529 381.604 350.581 376.621C358.552 363.608 361.328 344.448 366.344 330C379.02 293.488 391.041 256.753 403 220C381.068 225.074 358.345 235.242 338 244.78C331.285 247.928 320.61 250.62 315.702 256.39C311.603 261.21 310.309 270.073 308.333 276L293.333 321C279.321 363.037 265.01 404.969 251 447C244.366 466.904 240.006 492.137 229 510z"/>
<path style="fill:#6ea8c4; stroke:none;" d="M223 221L224 222L223 221z"/>
<path style="fill:#edb32c; stroke:none;" d="M221 222L222 223L221 222z"/>
<path style="fill:#6ea8c4; stroke:none;" d="M220 223L221 224L220 223M218 224L219 225L218 224M389 224L390 225L389 224M386 225L387 226L386 225M215 226L216 227L215 226M212 228L213 229L212 228M378 228L379 229L378 228M375 229L376 230L375 229M209 230L210 231L209 230M370 231L371 232L370 231M206 232L207 233L206 232z"/>
<path style="fill:#edb32c; stroke:none;" d="M203 234L204 235L203 234z"/>
<path style="fill:#6ea8c4; stroke:none;" d="M202 235L203 236L202 235M199 237L200 238L199 237M355 237L356 238L355 237M350 239L351 240L350 239M195 240L196 241L195 240M343 242L344 243L343 242M191 243L192 244L191 243M190 244L191 245L190 244z"/>
<path style="fill:#edb32c; stroke:none;" d="M187 246L188 247L187 246z"/>
<path style="fill:#6ea8c4; stroke:none;" d="M334 246L335 247L334 246M186 247L187 248L186 247M332 247L333 248L332 247M185 248L186 249L185 248M181 251L182 252L181 251M180 252L181 253L180 252M175 256L176 257L175 256z"/>
<path style="fill:#e11e5d; stroke:none;" d="M314 256C285.717 272.508 253.737 287.059 232.465 313C209.289 341.262 202.825 388.787 198 424C194.197 451.751 195.588 500.679 231 509L250.667 449L292 326L308.333 277L314 256z"/>
<path style="fill:#6ea8c4; stroke:none;" d="M174 257L175 258L174 257M173 258L174 259L173 258M172 259L173 260L172 259z"/>
<path style="fill:#edb32c; stroke:none;" d="M166 264L167 265L166 264z"/>
<path style="fill:#6ea8c4; stroke:none;" d="M165 265L166 266L165 265M164 266L165 267L164 266M163 267L164 268L163 267M162 268L163 269L162 268M161 269L162 270L161 269M160 270L161 271L160 270M159 271L160 272L159 271M158 272L159 273L158 272M157 273L158 274L157 273M156 274L157 275L156 274M155 275L156 276L155 275M154 276L155 277L154 276M153 277L154 278L153 277M152 278L153 279L152 278M151 279L152 280L151 279M150 280L151 281L150 280M149 281L150 282L149 281M148 282L149 283L148 282M147 283L148 284L147 283M146 284L147 285L146 284M140 291L141 292L140 291M139 292L140 293L139 292M138 293L139 294L138 293z"/>
<path style="fill:#edb32c; stroke:none;" d="M137 294L138 295L137 294z"/>
<path style="fill:#6ea8c4; stroke:none;" d="M134 298L135 299L134 298M133 299L134 300L133 299M132 300L133 301L132 300M129 304L130 305L129 304M128 305L129 306L128 305M125 309L126 310L125 309z"/>
<path style="fill:#ffffff; stroke:none;" d="M293 432C309.761 422.45 324.681 410.192 342 401.258C378.983 382.182 419.622 369.457 460 359.884C493.484 351.946 527.783 346.59 562 343.169C573.66 342.003 585.343 341.279 597 340.17C601.514 339.74 606.679 340.861 611 339.262C624.447 334.285 635.242 319.11 648 312L648 310L647 309C615.974 314.76 582.549 313.133 551 317.282C488.833 325.456 428.324 341.314 371 366.861C348.897 376.712 325.394 390.046 308 407.015C300.687 414.148 293.254 421.211 293 432z"/>
<path style="fill:#edb32c; stroke:none;" d="M124 310L125 311L124 310z"/>
<path style="fill:#6ea8c4; stroke:none;" d="M122 313L123 314L122 313M121 314L122 315L121 314M119 317L120 318L119 317z"/>
<path style="fill:#edb32c; stroke:none;" d="M118 318L119 319L118 318z"/>
<path style="fill:#6ea8c4; stroke:none;" d="M116 321L117 322L116 321M114 324L115 325L114 324M112 327L113 328L112 327z"/>
<path style="fill:#edb32c; stroke:none;" d="M111 328L112 329L111 328z"/>
<path style="fill:#6ea8c4; stroke:none;" d="M110 330L111 331L110 330z"/>
<path style="fill:#edb32c; stroke:none;" d="M109 331L110 332L109 331z"/>
<path style="fill:#6ea8c4; stroke:none;" d="M108 333L109 334L108 333z"/>
<path style="fill:#edb32c; stroke:none;" d="M107 334L108 335L107 334z"/>
<path style="fill:#6ea8c4; stroke:none;" d="M106 336L107 337L106 336z"/>
<path style="fill:#edb32c; stroke:none;" d="M219 336L220 337L219 336z"/>
<path style="fill:#ffffff; stroke:none;" d="M218 337C199.072 356.791 192.42 385.101 186.13 411C178.243 443.472 167.132 487.789 186.699 518C206.523 548.607 248.76 555.375 282 560.272C348.905 570.127 415.458 583.025 481 599.626C505.693 605.88 531.098 613.467 554 624.756C565.183 630.269 576.596 636.921 583 648C599.593 640.605 611.494 621.316 594.961 607.669C576.624 592.533 551.458 584.485 529 577.72C458.816 556.577 386.265 544.197 314 532.589C278.262 526.849 233.63 522.649 209.518 492C183.385 458.783 199.178 406.758 208.63 370C211.103 360.38 218.886 346.719 218 337z"/>
<path style="fill:#edb32c; stroke:none;" d="M218.333 338.667L218.667 339.333L218.333 338.667z"/>
<path style="fill:#6ea8c4; stroke:none;" d="M104 339L105 340L104 339z"/>
<path style="fill:#edb32c; stroke:none;" d="M594 340L594 341L597 341L594 340z"/>
<path style="fill:#6ea8c4; stroke:none;" d="M597 340L597 341L602 341L597 340z"/>
<path style="fill:#494b53; stroke:none;" d="M301 878L301 879C327.08 884.979 352.204 892.27 379 894.83C442.053 900.855 507.373 890.148 565 863.691C599.995 847.625 632.796 826.183 661 799.911C785.688 683.761 813.528 492.721 727 346C684.027 366.063 641.017 382.314 602 409.856C592.221 416.759 571.876 430.27 561.653 416.895C554.528 407.574 564.969 397.918 570.754 391C577.391 383.062 580.572 374.155 586.888 366C594.161 356.609 603.626 349.145 611 340C527.792 340.055 438.342 359.264 362 392.001C343.093 400.108 325.108 409.907 308 421.333C303.799 424.139 292.442 429.698 293.89 435.996C295.575 443.323 307.963 446.958 314 449.396C334.588 457.709 356.534 463.782 378 469.371C424.227 481.407 470.52 493.097 517 504.116C556.516 513.484 596.545 522.286 631 545.003C645.385 554.488 658.626 565.201 669.101 579C705.546 627.01 683.949 681.413 654.356 726C646.123 738.404 639.166 750.986 628.911 762C567.509 827.943 467.192 854.208 381 867.576C354.514 871.683 327.276 873.122 301 878z"/>
<path style="fill:#6ea8c4; stroke:none;" d="M103 341L104 342L103 341z"/>
<path style="fill:#edb32c; stroke:none;" d="M217 341L218 342L217 341M581.667 341.333L582.333 341.667L581.667 341.333z"/>
<path style="fill:#6ea8c4; stroke:none;" d="M583 341L583 342L587 342L583 341z"/>
<path style="fill:#edb32c; stroke:none;" d="M102 342L103 343L102 342M569.667 342.333L570.333 342.667L569.667 342.333z"/>
<path style="fill:#6ea8c4; stroke:none;" d="M571 342L571 343L574 343L571 342M212 343L213 344L212 343z"/>
<path style="fill:#edb32c; stroke:none;" d="M559.667 343.333L560.333 343.667L559.667 343.333z"/>
<path style="fill:#6ea8c4; stroke:none;" d="M561 343L561 344L564 344L561 343M101 344L102 345L101 344M211 344L212 345L211 344z"/>
<path style="fill:#edb32c; stroke:none;" d="M216 344L217 345L216 344M550 344L551 345L550 344z"/>
<path style="fill:#6ea8c4; stroke:none;" d="M551 344L551 345L554 345L551 344z"/>
<path style="fill:#edb32c; stroke:none;" d="M541.667 345.333L542.333 345.667L541.667 345.333z"/>
<path style="fill:#6ea8c4; stroke:none;" d="M543.667 345.333L544.333 345.667L543.667 345.333z"/>
<path style="fill:#edb32c; stroke:none;" d="M534 346L535 347L534 346z"/>
<path style="fill:#6ea8c4; stroke:none;" d="M535.667 346.333L536.333 346.667L535.667 346.333M725 346L726 347L725 346z"/>
<path style="fill:#edb32c; stroke:none;" d="M99 347L100 348L99 347M209 347L210 348L209 347M215 347L216 348L215 347M526 347L527 348L526 347z"/>
<path style="fill:#6ea8c4; stroke:none;" d="M527 347L527 348L530 348L527 347M208 348L209 349L208 348M520 348L520 349L523 349L520 348M722 348L723 349L722 348M728 348L729 349L728 348M98 349L99 350L98 349z"/>
<path style="fill:#edb32c; stroke:none;" d="M214.333 349.667L214.667 350.333L214.333 349.667M513 349L514 350L513 349z"/>
<path style="fill:#6ea8c4; stroke:none;" d="M514.667 349.333L515.333 349.667L514.667 349.333M720 349L721 350L720 349z"/>
<path style="fill:#edb32c; stroke:none;" d="M507 350L508 351L507 350z"/>
<path style="fill:#6ea8c4; stroke:none;" d="M508.667 350.333L509.333 350.667L508.667 350.333z"/>
<path style="fill:#edb32c; stroke:none;" d="M718 350L719 351L718 350z"/>
<path style="fill:#6ea8c4; stroke:none;" d="M729 350L730 351L729 350M97 351L98 352L97 351M206 351L207 352L206 351z"/>
<path style="fill:#edb32c; stroke:none;" d="M501 351L502 352L501 351z"/>
<path style="fill:#6ea8c4; stroke:none;" d="M502.667 351.333L503.333 351.667L502.667 351.333z"/>
<path style="fill:#edb32c; stroke:none;" d="M716 351L717 352L716 351M495 352L496 353L495 352z"/>
<path style="fill:#6ea8c4; stroke:none;" d="M496.667 352.333L497.333 352.667L496.667 352.333M715 352L716 353L715 352M730 352L731 353L730 352M205 353L206 354L205 353z"/>
<path style="fill:#edb32c; stroke:none;" d="M213 353L214 354L213 353M490 353L491 354L490 353z"/>
<path style="fill:#6ea8c4; stroke:none;" d="M491 353L492 354L491 353M713 353L714 354L713 353z"/>
<path style="fill:#edb32c; stroke:none;" d="M95 354L96 355L95 354z"/>
<path style="fill:#6ea8c4; stroke:none;" d="M485.667 354.333L486.333 354.667L485.667 354.333z"/>
<path style="fill:#edb32c; stroke:none;" d="M710 354L711 355L710 354z"/>
<path style="fill:#6ea8c4; stroke:none;" d="M711 354L712 355L711 354M204 355L205 356L204 355M480.667 355.333L481.333 355.667L480.667 355.333z"/>
<path style="fill:#edb32c; stroke:none;" d="M708 355L709 356L708 355z"/>
<path style="fill:#6ea8c4; stroke:none;" d="M732 355L733 356L732 355M94 356L95 357L94 356z"/>
<path style="fill:#edb32c; stroke:none;" d="M212 356L213 357L212 356z"/>
<path style="fill:#6ea8c4; stroke:none;" d="M475.667 356.333L476.333 356.667L475.667 356.333M706 356L707 357L706 356M203 357L204 358L203 357z"/>
<path style="fill:#edb32c; stroke:none;" d="M470 357L471 358L470 357z"/>
<path style="fill:#6ea8c4; stroke:none;" d="M471 357L472 358L471 357M704 357L705 358L704 357M733 357L734 358L733 357M93 358L94 359L93 358M466.667 358.333L467.333 358.667L466.667 358.333M702 358L703 359L702 358M202 359L203 360L202 359z"/>
<path style="fill:#edb32c; stroke:none;" d="M211.333 359.667L211.667 360.333L211.333 359.667M461 359L462 360L461 359z"/>
<path style="fill:#6ea8c4; stroke:none;" d="M462 359L463 360L462 359z"/>
<path style="fill:#edb32c; stroke:none;" d="M699 359L700 360L699 359z"/>
<path style="fill:#6ea8c4; stroke:none;" d="M700 359L701 360L700 359M734 359L735 360L734 359M92 360L93 361L92 360z"/>
<path style="fill:#edb32c; stroke:none;" d="M457 360L458 361L457 360z"/>
<path style="fill:#6ea8c4; stroke:none;" d="M458 360L459 361L458 360M697 360L698 361L697 360M201 361L202 362L201 361M453.667 361.333L454.333 361.667L453.667 361.333M695 361L696 362L695 361M735 361L736 362L735 361M91 362L92 363L91 362M449.667 362.333L450.333 362.667L449.667 362.333M692 362L693 363L692 362z"/>
<path style="fill:#edb32c; stroke:none;" d="M210 363L211 364L210 363z"/>
<path style="fill:#6ea8c4; stroke:none;" d="M445.667 363.333L446.333 363.667L445.667 363.333M690 363L691 364L690 363M736 363L737 364L736 363M90 364L91 365L90 364M200 364L201 365L200 364M441.667 364.333L442.333 364.667L441.667 364.333M687 364L688 365L687 364z"/>
<path style="fill:#edb32c; stroke:none;" d="M89 365L90 366L89 365z"/>
<path style="fill:#6ea8c4; stroke:none;" d="M438 365L439 366L438 365M685 365L686 366L685 365M737 365L738 366L737 365M199 366L200 367L199 366z"/>
<path style="fill:#edb32c; stroke:none;" d="M209.333 366.667L209.667 367.333L209.333 366.667z"/>
<path style="fill:#6ea8c4; stroke:none;" d="M434 366L435 367L434 366M682 366L683 367L682 366z"/>
<path style="fill:#edb32c; stroke:none;" d="M88 367L89 368L88 367z"/>
<path style="fill:#6ea8c4; stroke:none;" d="M430.667 367.333L431.333 367.667L430.667 367.333M679.667 367.333L680.333 367.667L679.667 367.333M427 368L428 369L427 368M677 368L678 369L677 368z"/>
<path style="fill:#edb32c; stroke:none;" d="M739 368L740 369L739 368M87 369L88 370L87 369z"/>
<path style="fill:#6ea8c4; stroke:none;" d="M198 369L199 370L198 369z"/>
<path style="fill:#edb32c; stroke:none;" d="M423 369L424 370L423 369z"/>
<path style="fill:#6ea8c4; stroke:none;" d="M424 369L425 370L424 369M674 369L675 370L674 369z"/>
<path style="fill:#edb32c; stroke:none;" d="M208.333 370.667L208.667 371.333L208.333 370.667z"/>
<path style="fill:#6ea8c4; stroke:none;" d="M420.667 370.333L421.333 370.667L420.667 370.333M672 370L673 371L672 370z"/>
<path style="fill:#edb32c; stroke:none;" d="M740 370L741 371L740 370M86 371L87 372L86 371z"/>
<path style="fill:#6ea8c4; stroke:none;" d="M197 371L198 372L197 371M417 371L418 372L417 371M669 371L670 372L669 371M414 372L415 373L414 372z"/>
<path style="fill:#edb32c; stroke:none;" d="M666 372L667 373L666 372z"/>
<path style="fill:#6ea8c4; stroke:none;" d="M667 372L668 373L667 372z"/>
<path style="fill:#edb32c; stroke:none;" d="M85 373L86 374L85 373M410 373L411 374L410 373z"/>
<path style="fill:#6ea8c4; stroke:none;" d="M411 373L412 374L411 373M664 373L665 374L664 373M741 373L742 374L741 373M85 374L86 375L85 374M196 374L197 375L196 374z"/>
<path style="fill:#edb32c; stroke:none;" d="M207.333 374.667L207.667 375.333L207.333 374.667z"/>
<path style="fill:#6ea8c4; stroke:none;" d="M407.667 374.333L408.333 374.667L407.667 374.333z"/>
<path style="fill:#edb32c; stroke:none;" d="M661 374L662 375L661 374z"/>
<path style="fill:#6ea8c4; stroke:none;" d="M662 374L663 375L662 374M404.667 375.333L405.333 375.667L404.667 375.333M659 375L660 376L659 375M742 375L743 376L742 375M84 376L85 377L84 376M401.667 376.333L402.333 376.667L401.667 376.333M657 376L658 377L657 376M195 377L196 378L195 377M399 377L400 378L399 377z"/>
<path style="fill:#edb32c; stroke:none;" d="M654 377L655 378L654 377z"/>
<path style="fill:#6ea8c4; stroke:none;" d="M655 377L656 378L655 377M743 377L744 378L743 377M83 378L84 379L83 378z"/>
<path style="fill:#edb32c; stroke:none;" d="M206.333 378.667L206.667 379.333L206.333 378.667z"/>
<path style="fill:#6ea8c4; stroke:none;" d="M396 378L397 379L396 378M652 378L653 379L652 378M393 379L394 380L393 379M650 379L651 380L650 379M744 379L745 380L744 379M82 380L83 381L82 380M194 380L195 381L194 380M390 380L391 381L390 380M648 380L649 381L648 380M387.667 381.333L388.333 381.667L387.667 381.333M646 381L647 382L646 381M745 381L746 382L745 381M81 382L82 383L81 382z"/>
<path style="fill:#edb32c; stroke:none;" d="M205.333 382.667L205.667 383.333L205.333 382.667z"/>
<path style="fill:#6ea8c4; stroke:none;" d="M385 382L386 383L385 382M644 382L645 383L644 382M193 383L194 384L193 383M382 383L383 384L382 383M642 383L643 384L642 383M746 383L747 384L746 383M80 384L81 385L80 384z"/>
<path style="fill:#edb32c; stroke:none;" d="M379 384L380 385L379 384z"/>
<path style="fill:#6ea8c4; stroke:none;" d="M380 384L381 385L380 384M640 384L641 385L640 384M377 385L378 386L377 385z"/>
<path style="fill:#edb32c; stroke:none;" d="M638 385L639 386L638 385M747 385L748 386L747 385z"/>
<path style="fill:#6ea8c4; stroke:none;" d="M192.333 386.667L192.667 387.333L192.333 386.667z"/>
<path style="fill:#edb32c; stroke:none;" d="M204.333 386.667L204.667 387.333L204.333 386.667M374 386L375 387L374 386z"/>
<path style="fill:#6ea8c4; stroke:none;" d="M375 386L376 387L375 386M747 386L748 387L747 386M79 387L80 388L79 387M372 387L373 388L372 387M635 387L636 388L635 387M370 388L371 389L370 388M633 388L634 389L633 388M748 388L749 389L748 388M78 389L79 390L78 389M367 389L368 390L367 389M191 390L192 391L191 390M365 390L366 391L365 390M630 390L631 391L630 390M749 390L750 391L749 390M77 391L78 392L77 391z"/>
<path style="fill:#edb32c; stroke:none;" d="M203.333 391.667L203.667 392.333L203.333 391.667z"/>
<path style="fill:#6ea8c4; stroke:none;" d="M363 391L364 392L363 391z"/>
<path style="fill:#edb32c; stroke:none;" d="M628 391L629 392L628 391z"/>
<path style="fill:#6ea8c4; stroke:none;" d="M360 392L361 393L360 392z"/>
<path style="fill:#edb32c; stroke:none;" d="M569 392L570 393L569 392z"/>
<path style="fill:#6ea8c4; stroke:none;" d="M627 392L628 393L627 392z"/>
<path style="fill:#edb32c; stroke:none;" d="M750 392L751 393L750 392z"/>
<path style="fill:#6ea8c4; stroke:none;" d="M190 393L191 394L190 393M358 393L359 394L358 393M568 393L569 394L568 393z"/>
<path style="fill:#edb32c; stroke:none;" d="M625 393L626 394L625 393z"/>
<path style="fill:#6ea8c4; stroke:none;" d="M750 393L751 394L750 393M76 394L77 395L76 394z"/>
<path style="fill:#edb32c; stroke:none;" d="M190 394L191 395L190 394z"/>
<path style="fill:#6ea8c4; stroke:none;" d="M356 394L357 395L356 394M567 394L568 395L567 394z"/>
<path style="fill:#edb32c; stroke:none;" d="M202 395L202 398L203 398L202 395z"/>
<path style="fill:#6ea8c4; stroke:none;" d="M354 395L355 396L354 395M622 395L623 396L622 395M751 395L752 396L751 395M75 396L76 397L75 396M352 396L353 397L352 396M189 397L190 398L189 397z"/>
<path style="fill:#edb32c; stroke:none;" d="M349 397L350 398L349 397M619 397L620 398L619 397M752 397L753 398L752 397M347 398L348 399L347 398z"/>
<path style="fill:#6ea8c4; stroke:none;" d="M564 398L565 399L564 398M618 398L619 399L618 398M752 398L753 399L752 398M74 399L75 400L74 399z"/>
<path style="fill:#edb32c; stroke:none;" d="M345 399L346 400L345 399M616 399L617 400L616 399z"/>
<path style="fill:#6ea8c4; stroke:none;" d="M188.333 400.667L188.667 401.333L188.333 400.667z"/>
<path style="fill:#edb32c; stroke:none;" d="M201 400L201 403L202 403L201 400M343 400L344 401L343 400z"/>
<path style="fill:#6ea8c4; stroke:none;" d="M615 400L616 401L615 400M753 400L754 401L753 400M73 401L74 402L73 401z"/>
<path style="fill:#edb32c; stroke:none;" d="M341 401L342 402L341 401M562 401L563 402L562 401M339 402L340 403L339 402z"/>
<path style="fill:#6ea8c4; stroke:none;" d="M561 402L562 403L561 402M612 402L613 403L612 402z"/>
<path style="fill:#edb32c; stroke:none;" d="M337 403L338 404L337 403z"/>
<path style="fill:#6ea8c4; stroke:none;" d="M754 403L755 404L754 403M72 404L73 405L72 404M187.333 404.667L187.667 405.333L187.333 404.667z"/>
<path style="fill:#edb32c; stroke:none;" d="M560 404L561 405L560 404z"/>
<path style="fill:#6ea8c4; stroke:none;" d="M609 404L610 405L609 404M334 405L335 406L334 405M608 405L609 406L608 405M755 405L756 406L755 405z"/>
<path style="fill:#edb32c; stroke:none;" d="M200.333 406.667L200.667 407.333L200.333 406.667z"/>
<path style="fill:#6ea8c4; stroke:none;" d="M332 406L333 407L332 406M71 407L72 408L71 407M330 407L331 408L330 407M605 407L606 408L605 407M186.333 408.667L186.667 409.333L186.333 408.667M328 408L329 409L328 408M558 408L559 409L558 408M756 408L757 409L756 408M70 409L71 410L70 409M602 409L603 410L602 409M325 410L326 411L325 410M601 410L602 411L601 410z"/>
<path style="fill:#edb32c; stroke:none;" d="M199 411L199 414L200 414L199 411z"/>
<path style="fill:#6ea8c4; stroke:none;" d="M323 411L324 412L323 411M757 411L758 412L757 411M69 412L70 413L69 412z"/>
<path style="fill:#edb32c; stroke:none;" d="M321 412L322 413L321 412z"/>
<path style="fill:#6ea8c4; stroke:none;" d="M598 412L599 413L598 412M185 413L186 414L185 413M320 413L321 414L320 413M559 413L560 414L559 413z"/>
<path style="fill:#edb32c; stroke:none;" d="M596 413L597 414L596 413z"/>
<path style="fill:#6ea8c4; stroke:none;" d="M318 414L319 415L318 414M758 414L759 415L758 414M68 415L69 416L68 415M593 415L594 416L593 415M315 416L316 417L315 416M591 416L592 417L591 416M184.333 417.667L184.667 418.333L184.333 417.667z"/>
<path style="fill:#edb32c; stroke:none;" d="M198 417L198 421L199 421L198 417M313 417L314 418L313 417z"/>
<path style="fill:#6ea8c4; stroke:none;" d="M561 417L562 418L561 417M589 417L590 418L589 417M759 417L760 418L759 417M67 418L68 419L67 418M312 418L313 419L312 418M562 418L563 419L562 418M587 418L588 419L587 418z"/>
<path style="fill:#edb32c; stroke:none;" d="M310 419L311 420L310 419z"/>
<path style="fill:#6ea8c4; stroke:none;" d="M563 419L564 420L563 419M585 419L586 420L585 419M309 420L310 421L309 420z"/>
<path style="fill:#edb32c; stroke:none;" d="M565 420L566 421L565 420z"/>
<path style="fill:#6ea8c4; stroke:none;" d="M582.667 420.333L583.333 420.667L582.667 420.333M760 420L761 421L760 420M66 421L67 422L66 421z"/>
<path style="fill:#edb32c; stroke:none;" d="M307 421L308 422L307 421z"/>
<path style="fill:#6ea8c4; stroke:none;" d="M567 421L568 422L567 421M579.667 421.333L580.333 421.667L579.667 421.333M183 422L184 423L183 422M306 422L307 423L306 422M572 422L572 423L576 423L572 422z"/>
<path style="fill:#edb32c; stroke:none;" d="M183 423L184 424L183 423z"/>
<path style="fill:#6ea8c4; stroke:none;" d="M761 423L762 424L761 423M65.3333 424.667L65.6667 425.333L65.3333 424.667z"/>
<path style="fill:#edb32c; stroke:none;" d="M197 424L197 428L198 428L197 424z"/>
<path style="fill:#6ea8c4; stroke:none;" d="M303 424L304 425L303 424M182.333 426.667L182.667 427.333L182.333 426.667M762 426L763 427L762 426M299 427L300 428L299 427M64 428L65 429L64 428z"/>
<path style="fill:#edb32c; stroke:none;" d="M182 428L183 429L182 428z"/>
<path style="fill:#6ea8c4; stroke:none;" d="M763.333 429.667L763.667 430.333L763.333 429.667M295 430L296 431L295 430M63 431L64 432L63 431M181.333 431.667L181.667 432.333L181.333 431.667M294 431L295 432L294 431M293 432L294 433L293 432z"/>
<path style="fill:#edb32c; stroke:none;" d="M181 433L182 434L181 433M196 433L196 439L197 439L196 433z"/>
<path style="fill:#6ea8c4; stroke:none;" d="M764 433L765 434L764 433z"/>
<path style="fill:#edb32c; stroke:none;" d="M62 434L63 435L62 434z"/>
<path style="fill:#6ea8c4; stroke:none;" d="M62 435L63 436L62 435M765.333 436.667L765.667 437.333L765.333 436.667M180.333 437.667L180.667 438.333L180.333 437.667M61.3333 438.667L61.6667 439.333L61.3333 438.667M766.333 440.667L766.667 441.333L766.333 440.667M60.3333 442.667L60.6667 443.333L60.3333 442.667M179.333 443.667L179.667 444.333L179.333 443.667M301 443L302 444L301 443M767.333 444.667L767.667 445.333L767.333 444.667z"/>
<path style="fill:#edb32c; stroke:none;" d="M179 445L180 446L179 445z"/>
<path style="fill:#6ea8c4; stroke:none;" d="M59.3333 446.667L59.6667 447.333L59.3333 446.667M307 446L308 447L307 446M309 447L310 448L309 447M768.333 448.667L768.667 449.333L768.333 448.667M178.333 449.667L178.667 450.333L178.333 449.667M314 449L315 450L314 449M58.3333 450.667L58.6667 451.333L58.3333 450.667z"/>
<path style="fill:#edb32c; stroke:none;" d="M178 451L179 452L178 451z"/>
<path style="fill:#6ea8c4; stroke:none;" d="M322 452L323 453L322 452z"/>
<path style="fill:#edb32c; stroke:none;" d="M769 452L770 453L769 452z"/>
<path style="fill:#6ea8c4; stroke:none;" d="M325 453L308 504L300 531C327.758 532.192 356.668 539.646 384 544.576C435.765 553.912 488.028 564.343 538 581C556.421 587.141 575.134 593.995 591 605.428C596.56 609.435 604.604 616.257 603.732 624C602.745 632.775 592.335 640.901 586 645.999C567.237 661.1 546.052 671.757 524 681.15C434.22 719.389 329.28 726 233 726L222 761L192 852C200.842 854.614 211.805 853 221 853C243.031 853 265.048 851.593 287 850.089C380.308 843.7 477.071 831.147 563 791.691C584.111 781.998 604.577 770.55 623 756.349C631.205 750.024 641.358 735.888 651 733C652.209 723.024 666.681 710.243 671.691 701C684.786 676.845 692.416 645.369 687.536 618C679.855 574.922 640.975 547.234 604 529.781C570.419 513.93 532.874 507.62 497 499.116C439.266 485.429 381.443 471.366 325 453M769 453L770 454L769 453M57.3333 455.667L57.6667 456.333L57.3333 455.667M177 456L177 459L178 459L177 456M770.333 457.667L770.667 458.333L770.333 457.667z"/>
<path style="fill:#edb32c; stroke:none;" d="M196 458L196 462L197 462L196 458M56 459L57 460L56 459M177.333 459.667L177.667 460.333L177.333 459.667z"/>
<path style="fill:#6ea8c4; stroke:none;" d="M56 460L57 461L56 460M771.333 462.667L771.667 463.333L771.333 462.667z"/>
<path style="fill:#edb32c; stroke:none;" d="M55 464L56 465L55 464z"/>
<path style="fill:#6ea8c4; stroke:none;" d="M55.3333 465.667L55.6667 466.333L55.3333 465.667z"/>
<path style="fill:#edb32c; stroke:none;" d="M197.333 465.667L197.667 466.333L197.333 465.667z"/>
<path style="fill:#6ea8c4; stroke:none;" d="M176 466L176 470L177 470L176 466z"/>
<path style="fill:#edb32c; stroke:none;" d="M772 467L773 468L772 467z"/>
<path style="fill:#6ea8c4; stroke:none;" d="M772.333 468.667L772.667 469.333L772.333 468.667z"/>
<path style="fill:#edb32c; stroke:none;" d="M198.333 469.667L198.667 470.333L198.333 469.667M54 470L55 471L54 470M176 470L176 473L177 473L176 470z"/>
<path style="fill:#6ea8c4; stroke:none;" d="M54.3333 471.667L54.6667 472.333L54.3333 471.667z"/>
<path style="fill:#edb32c; stroke:none;" d="M199 473L200 474L199 473M773 473L774 474L773 473z"/>
<path style="fill:#6ea8c4; stroke:none;" d="M773.333 474.667L773.667 475.333L773.333 474.667z"/>
<path style="fill:#edb32c; stroke:none;" d="M53 476L54 477L53 476M200 476L201 477L200 476z"/>
<path style="fill:#6ea8c4; stroke:none;" d="M53.3333 477.667L53.6667 478.333L53.3333 477.667z"/>
<path style="fill:#edb32c; stroke:none;" d="M201 478L202 479L201 478M774 479L775 480L774 479M202.333 480.667L202.667 481.333L202.333 480.667z"/>
<path style="fill:#6ea8c4; stroke:none;" d="M774 480L774 483L775 483L774 480z"/>
<path style="fill:#edb32c; stroke:none;" d="M52 483L53 484L52 483z"/>
<path style="fill:#6ea8c4; stroke:none;" d="M52.3333 484.667L52.6667 485.333L52.3333 484.667z"/>
<path style="fill:#edb32c; stroke:none;" d="M176 484L176 487L177 487L176 484M204 484L205 485L204 484M205 486L206 487L205 486z"/>
<path style="fill:#6ea8c4; stroke:none;" d="M176 487L176 490L177 490L176 487z"/>
<path style="fill:#edb32c; stroke:none;" d="M775 487L776 488L775 487z"/>
<path style="fill:#6ea8c4; stroke:none;" d="M775 488L775 491L776 491L775 488z"/>
<path style="fill:#edb32c; stroke:none;" d="M207 489L208 490L207 489M51 491L52 492L51 491z"/>
<path style="fill:#6ea8c4; stroke:none;" d="M51 492L51 495L52 495L51 492z"/>
<path style="fill:#edb32c; stroke:none;" d="M209 492L210 493L209 492M177 493L178 494L177 493M210 493L211 494L210 493z"/>
<path style="fill:#6ea8c4; stroke:none;" d="M177.333 494.667L177.667 495.333L177.333 494.667z"/>
<path style="fill:#edb32c; stroke:none;" d="M211 494L212 495L211 494M776.333 495.667L776.667 496.333L776.333 495.667z"/>
<path style="fill:#6ea8c4; stroke:none;" d="M776 497L776 501L777 501L776 497z"/>
<path style="fill:#edb32c; stroke:none;" d="M178 498L179 499L178 498z"/>
<path style="fill:#6ea8c4; stroke:none;" d="M178 499L179 500L178 499z"/>
<path style="fill:#edb32c; stroke:none;" d="M50.3333 501.667L50.6667 502.333L50.3333 501.667M218 501L219 502L218 501z"/>
<path style="fill:#6ea8c4; stroke:none;" d="M179 502L180 503L179 502z"/>
<path style="fill:#edb32c; stroke:none;" d="M219 502L220 503L219 502z"/>
<path style="fill:#6ea8c4; stroke:none;" d="M50 503L50 507L51 507L50 503z"/>
<path style="fill:#edb32c; stroke:none;" d="M220 503L221 504L220 503z"/>
<path style="fill:#6ea8c4; stroke:none;" d="M180 505L181 506L180 505z"/>
<path style="fill:#edb32c; stroke:none;" d="M223 505L224 506L223 505M224 506L225 507L224 506M226 507L227 508L226 507M777 507L777 510L778 510L777 507z"/>
<path style="fill:#6ea8c4; stroke:none;" d="M181 508L182 509L181 508z"/>
<path style="fill:#edb32c; stroke:none;" d="M227 508L228 509L227 508z"/>
<path style="fill:#6ea8c4; stroke:none;" d="M182 510L183 511L182 510M777 510L777 516L778 516L777 510M183 512L184 513L183 512M184 514L185 515L184 514z"/>
<path style="fill:#edb32c; stroke:none;" d="M49 516L49 522L50 522L49 516z"/>
<path style="fill:#6ea8c4; stroke:none;" d="M186 517L187 518L186 517M188 520L189 521L188 520M49 522L49 543L50 543L49 522M191 524L192 525L191 524M192 525L193 526L192 525M193 526L194 527L193 526M194 527L195 528L194 527M195 528L196 529L195 528M196 529L197 530L196 529M197 530L198 531L197 530M198 531L199 532L198 531M202 534L203 535L202 534M203 535L204 536L203 535z"/>
<path style="fill:#edb32c; stroke:none;" d="M205 536L206 537L205 536z"/>
<path style="fill:#6ea8c4; stroke:none;" d="M206 537L207 538L206 537z"/>
<path style="fill:#edb32c; stroke:none;" d="M208 538L209 539L208 538z"/>
<path style="fill:#6ea8c4; stroke:none;" d="M211 540L212 541L211 540M213 541L214 542L213 541M215 542L216 543L215 542z"/>
<path style="fill:#edb32c; stroke:none;" d="M49 543L49 549L50 549L49 543z"/>
<path style="fill:#6ea8c4; stroke:none;" d="M217 543L218 544L217 543M219 544L220 545L219 544M221 545L222 546L221 545M224 546L225 547L224 546M226 547L227 548L226 547M229 548L230 549L229 548M231.667 549.333L232.333 549.667L231.667 549.333M777 549L777 554L778 554L777 549M234.667 550.333L235.333 550.667L234.667 550.333M238 551L239 552L238 551M241.667 552.333L242.333 552.667L241.667 552.333M245 553L246 554L245 553z"/>
<path style="fill:#edb32c; stroke:none;" d="M246 553L247 554L246 553z"/>
<path style="fill:#6ea8c4; stroke:none;" d="M249 554L250 555L249 554z"/>
<path style="fill:#edb32c; stroke:none;" d="M250 554L251 555L250 554M777 554L777 557L778 557L777 554z"/>
<path style="fill:#6ea8c4; stroke:none;" d="M253.667 555.333L254.333 555.667L253.667 555.333M258.667 556.333L259.333 556.667L258.667 556.333M263.667 557.333L264.333 557.667L263.667 557.333M50 558L50 562L51 562L50 558M269 558L270 559L269 558z"/>
<path style="fill:#edb32c; stroke:none;" d="M270 558L271 559L270 558z"/>
<path style="fill:#6ea8c4; stroke:none;" d="M275.667 559.333L276.333 559.667L275.667 559.333M281.667 560.333L282.333 560.667L281.667 560.333z"/>
<path style="fill:#edb32c; stroke:none;" d="M283 560L284 561L283 560z"/>
<path style="fill:#6ea8c4; stroke:none;" d="M287.667 561.333L288.333 561.667L287.667 561.333z"/>
<path style="fill:#edb32c; stroke:none;" d="M289 561L290 562L289 561M50.3333 562.667L50.6667 563.333L50.3333 562.667z"/>
<path style="fill:#6ea8c4; stroke:none;" d="M293.667 562.333L294.333 562.667L293.667 562.333z"/>
<path style="fill:#edb32c; stroke:none;" d="M295 562L296 563L295 562z"/>
<path style="fill:#6ea8c4; stroke:none;" d="M299 563L299 564L302 564L299 563M306.667 564.333L307.333 564.667L306.667 564.333M776 564L776 567L777 567L776 564M312.667 565.333L313.333 565.667L312.667 565.333z"/>
<path style="fill:#edb32c; stroke:none;" d="M314 565L315 566L314 565z"/>
<path style="fill:#6ea8c4; stroke:none;" d="M318.667 566.333L319.333 566.667L318.667 566.333z"/>
<path style="fill:#edb32c; stroke:none;" d="M320 566L321 567L320 566z"/>
<path style="fill:#6ea8c4; stroke:none;" d="M324.667 567.333L325.333 567.667L324.667 567.333z"/>
<path style="fill:#edb32c; stroke:none;" d="M326 567L327 568L326 567M776.333 567.667L776.667 568.333L776.333 567.667z"/>
<path style="fill:#6ea8c4; stroke:none;" d="M330.667 568.333L331.333 568.667L330.667 568.333z"/>
<path style="fill:#edb32c; stroke:none;" d="M332 568L333 569L332 568z"/>
<path style="fill:#6ea8c4; stroke:none;" d="M51 569L51 572L52 572L51 569M336.667 569.333L337.333 569.667L336.667 569.333M341.667 570.333L342.333 570.667L341.667 570.333z"/>
<path style="fill:#edb32c; stroke:none;" d="M343 570L344 571L343 570z"/>
<path style="fill:#6ea8c4; stroke:none;" d="M347.667 571.333L348.333 571.667L347.667 571.333z"/>
<path style="fill:#edb32c; stroke:none;" d="M349 571L350 572L349 571M51.3333 572.667L51.6667 573.333L51.3333 572.667z"/>
<path style="fill:#6ea8c4; stroke:none;" d="M353.667 572.333L354.333 572.667L353.667 572.333M358.667 573.333L359.333 573.667L358.667 573.333z"/>
<path style="fill:#edb32c; stroke:none;" d="M360 573L361 574L360 573z"/>
<path style="fill:#6ea8c4; stroke:none;" d="M364.667 574.333L365.333 574.667L364.667 574.333M775.333 574.667L775.667 575.333L775.333 574.667M369.667 575.333L370.333 575.667L369.667 575.333z"/>
<path style="fill:#edb32c; stroke:none;" d="M371 575L372 576L371 575z"/>
<path style="fill:#6ea8c4; stroke:none;" d="M375.667 576.333L376.333 576.667L375.667 576.333z"/>
<path style="fill:#edb32c; stroke:none;" d="M775.333 576.667L775.667 577.333L775.333 576.667z"/>
<path style="fill:#6ea8c4; stroke:none;" d="M380.667 577.333L381.333 577.667L380.667 577.333z"/>
<path style="fill:#edb32c; stroke:none;" d="M382 577L383 578L382 577z"/>
<path style="fill:#6ea8c4; stroke:none;" d="M52 578L52 581L53 581L52 578M385.667 578.333L386.333 578.667L385.667 578.333z"/>
<path style="fill:#edb32c; stroke:none;" d="M387 578L388 579L387 578z"/>
<path style="fill:#6ea8c4; stroke:none;" d="M391 579L392 580L391 579z"/>
<path style="fill:#edb32c; stroke:none;" d="M392 579L393 580L392 579z"/>
<path style="fill:#6ea8c4; stroke:none;" d="M396 580L397 581L396 580z"/>
<path style="fill:#edb32c; stroke:none;" d="M397 580L398 581L397 580M52 581L53 582L52 581z"/>
<path style="fill:#6ea8c4; stroke:none;" d="M401 581L402 582L401 581z"/>
<path style="fill:#edb32c; stroke:none;" d="M402 581L403 582L402 581z"/>
<path style="fill:#6ea8c4; stroke:none;" d="M406 582L407 583L406 582z"/>
<path style="fill:#edb32c; stroke:none;" d="M407 582L408 583L407 582z"/>
<path style="fill:#6ea8c4; stroke:none;" d="M774.333 582.667L774.667 583.333L774.333 582.667M411 583L412 584L411 583z"/>
<path style="fill:#edb32c; stroke:none;" d="M412 583L413 584L412 583z"/>
<path style="fill:#6ea8c4; stroke:none;" d="M415.667 584.333L416.333 584.667L415.667 584.333z"/>
<path style="fill:#edb32c; stroke:none;" d="M417 584L418 585L417 584M774 584L775 585L774 584z"/>
<path style="fill:#6ea8c4; stroke:none;" d="M53 585L53 588L54 588L53 585M420.667 585.333L421.333 585.667L420.667 585.333M425 586L426 587L425 586z"/>
<path style="fill:#edb32c; stroke:none;" d="M426 586L427 587L426 586z"/>
<path style="fill:#6ea8c4; stroke:none;" d="M429.667 587.333L430.333 587.667L429.667 587.333M434.667 588.333L435.333 588.667L434.667 588.333M438.667 589.333L439.333 589.667L438.667 589.333M773.333 589.667L773.667 590.333L773.333 589.667M443 590L444 591L443 590z"/>
<path style="fill:#edb32c; stroke:none;" d="M444 590L445 591L444 590z"/>
<path style="fill:#6ea8c4; stroke:none;" d="M447.667 591.333L448.333 591.667L447.667 591.333M54.3333 592.667L54.6667 593.333L54.3333 592.667M452 592L453 593L452 592M456 593L457 594L456 593z"/>
<path style="fill:#edb32c; stroke:none;" d="M457 593L458 594L457 593M54 594L55 595L54 594z"/>
<path style="fill:#6ea8c4; stroke:none;" d="M460 594L461 595L460 594z"/>
<path style="fill:#edb32c; stroke:none;" d="M461 594L462 595L461 594z"/>
<path style="fill:#6ea8c4; stroke:none;" d="M464 595L465 596L464 595z"/>
<path style="fill:#edb32c; stroke:none;" d="M465 595L466 596L465 595z"/>
<path style="fill:#6ea8c4; stroke:none;" d="M772.333 595.667L772.667 596.333L772.333 595.667M468 596L469 597L468 596z"/>
<path style="fill:#edb32c; stroke:none;" d="M469 596L470 597L469 596z"/>
<path style="fill:#6ea8c4; stroke:none;" d="M472 597L473 598L472 597z"/>
<path style="fill:#edb32c; stroke:none;" d="M473 597L474 598L473 597z"/>
<path style="fill:#6ea8c4; stroke:none;" d="M55 598L56 599L55 598M476 598L477 599L476 598z"/>
<path style="fill:#edb32c; stroke:none;" d="M55 599L56 600L55 599z"/>
<path style="fill:#6ea8c4; stroke:none;" d="M480 599L481 600L480 599M483.667 600.333L484.333 600.667L483.667 600.333M771.333 600.667L771.667 601.333L771.333 600.667M487 601L488 602L487 601z"/>
<path style="fill:#edb32c; stroke:none;" d="M488 601L489 602L488 601z"/>
<path style="fill:#6ea8c4; stroke:none;" d="M491 602L492 603L491 602z"/>
<path style="fill:#edb32c; stroke:none;" d="M771 602L772 603L771 602z"/>
<path style="fill:#6ea8c4; stroke:none;" d="M56.3333 603.667L56.6667 604.333L56.3333 603.667M494.667 603.333L495.333 603.667L494.667 603.333M498 604L499 605L498 604M501 605L502 606L501 605M770.333 605.667L770.667 606.333L770.333 605.667M504.667 606.333L505.333 606.667L504.667 606.333M508 607L509 608L508 607M57 608L58 609L57 608M511 608L512 609L511 608z"/>
<path style="fill:#edb32c; stroke:none;" d="M57 609L58 610L57 609z"/>
<path style="fill:#6ea8c4; stroke:none;" d="M514 609L515 610L514 609M517 610L518 611L517 610M769.333 610.667L769.667 611.333L769.333 610.667M520 611L521 612L520 611M58.3333 612.667L58.6667 613.333L58.3333 612.667M523 612L524 613L523 612M526 613L527 614L526 613M529 614L530 615L529 614M768.333 614.667L768.667 615.333L768.333 614.667M531.667 615.333L532.333 615.667L531.667 615.333M534 616L535 617L534 616M59 617L60 618L59 617M537 617L538 618L537 617M539 618L540 619L539 618M542 619L543 620L542 619M767 619L768 620L767 619M544 620L545 621L544 620M60 621L61 622L60 621M546 621L547 622L546 621M549 622L550 623L549 622M551 623L552 624L551 623M766 623L767 624L766 623M553 624L554 625L553 624M61 625L62 626L61 625M555 625L556 626L555 625M557 626L558 627L557 626M765.333 626.667L765.667 627.333L765.333 626.667M559 627L560 628L559 627M62.3333 628.667L62.6667 629.333L62.3333 628.667M561 628L562 629L561 628M564 630L565 631L564 630M764.333 630.667L764.667 631.333L764.333 630.667M566 631L567 632L566 631M63 632L64 633L63 632M569 633L570 634L569 633M763 634L764 635L763 634M64.3333 635.667L64.6667 636.333L64.3333 635.667z"/>
<path style="fill:#edb32c; stroke:none;" d="M572 635L573 636L572 635z"/>
<path style="fill:#6ea8c4; stroke:none;" d="M573 636L574 637L573 636M574 637L575 638L574 637M762 637L763 638L762 637M65 639L66 640L65 639M761.333 640.667L761.667 641.333L761.333 640.667M66 642L67 643L66 642M580 643L581 644L580 643M760.333 643.667L760.667 644.333L760.333 643.667M67 645L68 646L67 645M582 646L583 647L582 646M759 647L760 648L759 647M68 648L69 649L68 648M758.333 649.667L758.667 650.333L758.333 649.667M69 651L70 652L69 651M757.333 652.667L757.667 653.333L757.333 652.667M70 654L71 655L70 654M756 655L757 656L756 655M71 657L72 658L71 657M755 658L756 659L755 658M72 659L73 660L72 659z"/>
<path style="fill:#edb32c; stroke:none;" d="M72 660L73 661L72 660z"/>
<path style="fill:#6ea8c4; stroke:none;" d="M754 661L755 662L754 661M73 662L74 663L73 662M753 663L754 664L753 663M74 665L75 666L74 665M752 666L753 667L752 666M75 667L76 668L75 667M751 668L752 669L751 668M76 670L77 671L76 670M750 671L751 672L750 671M77 672L78 673L77 672M749 673L750 674L749 673M78 674L79 675L78 674z"/>
<path style="fill:#edb32c; stroke:none;" d="M748 676L749 677L748 676z"/>
<path style="fill:#6ea8c4; stroke:none;" d="M79 677L80 678L79 677M747 678L748 679L747 678M80 679L81 680L80 679M746 680L747 681L746 680M81 681L82 682L81 681M745 682L746 683L745 682M82 683L83 684L82 683M189 684L190 685L189 684z"/>
<path style="fill:#edb32c; stroke:none;" d="M233 726L170 725C176.296 711.537 196.518 708.891 201.145 695C206.423 679.155 177.02 683.107 170.843 689.703C164.092 696.912 161.785 714.646 158.667 724C149.544 751.368 140.124 778.628 131 806L122.333 832C121.371 834.886 118.787 839.606 119.788 842.686C121.13 846.816 132.398 846.982 136 847.586C149.368 849.828 163.446 851.835 177 851.996C180.782 852.041 188.112 853.362 191.298 850.972C197.729 846.149 200.475 826.575 203 819L223.333 758C226.737 747.789 232.061 736.756 233 726z"/>
<path style="fill:#6ea8c4; stroke:none;" d="M744 684L745 685L744 684z"/>
<path style="fill:#edb32c; stroke:none;" d="M744 685L745 686L744 685M83 686L84 687L83 686M743 687L744 688L743 687z"/>
<path style="fill:#6ea8c4; stroke:none;" d="M84 688L85 689L84 688M171 688L172 689L171 688z"/>
<path style="fill:#e11e5d; stroke:none;" d="M119 844L157 730L170 689C151.505 692.828 125.645 699.96 111.015 712.329C104.658 717.703 99.6796 725.273 94.8596 732C80.5024 752.036 54.2095 785.88 66.3241 812C75.3228 831.402 99.6265 839.559 119 844z"/>
<path style="fill:#6ea8c4; stroke:none;" d="M742 689L743 690L742 689M85 690L86 691L85 690M741 691L742 692L741 691M86 692L87 693L86 692M740 693L741 694L740 693M87 694L88 695L87 694M739 695L740 696L739 695M88 696L89 697L88 696M738 697L739 698L738 697M89 698L90 699L89 698M199 698L200 699L199 698M737 699L738 700L737 699M90 700L91 701L90 700z"/>
<path style="fill:#edb32c; stroke:none;" d="M736 701L737 702L736 701M91 702L92 703L91 702M735 703L736 704L735 703M92 704L93 705L92 704z"/>
<path style="fill:#6ea8c4; stroke:none;" d="M733 706L734 707L733 706M94 707L95 708L94 707M186 708L187 709L186 708M732 708L733 709L732 708M95 709L96 710L95 709M731 710L732 711L731 710M96 711L97 712L96 711z"/>
<path style="fill:#edb32c; stroke:none;" d="M730 712L731 713L730 712M97 713L98 714L97 713z"/>
<path style="fill:#6ea8c4; stroke:none;" d="M98 714L99 715L98 714z"/>
<path style="fill:#ffffff; stroke:none;" d="M170 725C177.724 725 184.508 724.423 180 715C175.079 716.907 171.457 719.823 170 725z"/>
<path style="fill:#6ea8c4; stroke:none;" d="M180 715L181 716L180 715M728 715L729 716L728 715M99 716L100 717L99 716M181 717L182 718L181 717M727 717L728 718L727 717z"/>
<path style="fill:#edb32c; stroke:none;" d="M100 718L101 719L100 718z"/>
<path style="fill:#6ea8c4; stroke:none;" d="M725 720L726 721L725 720M102 721L103 722L102 721M724 722L725 723L724 722z"/>
<path style="fill:#edb32c; stroke:none;" d="M101 723L102 724L101 723M181 723L182 724L181 723M100 724L101 725L100 724z"/>
<path style="fill:#6ea8c4; stroke:none;" d="M181.333 724.667L181.667 725.333L181.333 724.667M722 725L723 726L722 725z"/>
<path style="fill:#edb32c; stroke:none;" d="M721 727L722 728L721 727M97 728L98 729L97 728z"/>
<path style="fill:#6ea8c4; stroke:none;" d="M720 728L721 729L720 728z"/>
<path style="fill:#ffffff; stroke:none;" d="M651 729L652 730L651 729z"/>
<path style="fill:#edb32c; stroke:none;" d="M651 730L652 731L651 730M719 730L720 731L719 730M95 731L96 732L95 731z"/>
<path style="fill:#ffffff; stroke:none;" d="M650 731L651 732L650 731z"/>
<path style="fill:#6ea8c4; stroke:none;" d="M718 731L719 732L718 731z"/>
<path style="fill:#edb32c; stroke:none;" d="M94 732L95 733L94 732z"/>
<path style="fill:#6ea8c4; stroke:none;" d="M717 733L718 734L717 733M649 734L650 735L649 734z"/>
<path style="fill:#edb32c; stroke:none;" d="M92 735L93 736L92 735M715 736L716 737L715 736z"/>
<path style="fill:#6ea8c4; stroke:none;" d="M647 737L648 738L647 737M714 737L715 738L714 737z"/>
<path style="fill:#edb32c; stroke:none;" d="M90 738L91 739L90 738M89 739L90 740L89 739z"/>
<path style="fill:#6ea8c4; stroke:none;" d="M646 739L647 740L646 739z"/>
<path style="fill:#edb32c; stroke:none;" d="M713 739L714 740L713 739z"/>
<path style="fill:#6ea8c4; stroke:none;" d="M712 740L713 741L712 740z"/>
<path style="fill:#edb32c; stroke:none;" d="M88 741L89 742L88 741M87 742L88 743L87 742z"/>
<path style="fill:#6ea8c4; stroke:none;" d="M644 742L645 743L644 742M710 743L711 744L710 743M642 745L643 746L642 745z"/>
<path style="fill:#edb32c; stroke:none;" d="M641 746L642 747L641 746M708 746L709 747L708 746z"/>
<path style="fill:#6ea8c4; stroke:none;" d="M707 747L708 748L707 747M639 749L640 750L639 749z"/>
<path style="fill:#edb32c; stroke:none;" d="M638 750L639 751L638 750z"/>
<path style="fill:#6ea8c4; stroke:none;" d="M705 750L706 751L705 750M704 751L705 752L704 751M636 753L637 754L636 753M635 754L636 755L635 754z"/>
<path style="fill:#edb32c; stroke:none;" d="M702 754L703 755L702 754z"/>
<path style="fill:#6ea8c4; stroke:none;" d="M701 755L702 756L701 755z"/>
<path style="fill:#edb32c; stroke:none;" d="M78.3333 756.667L78.6667 757.333L78.3333 756.667M77 759L78 760L77 759z"/>
<path style="fill:#6ea8c4; stroke:none;" d="M631 759L632 760L631 759M698 759L699 760L698 759z"/>
<path style="fill:#edb32c; stroke:none;" d="M76 760L77 761L76 760z"/>
<path style="fill:#6ea8c4; stroke:none;" d="M630 760L631 761L630 760M697 760L698 761L697 760M629 761L630 762L629 761z"/>
<path style="fill:#edb32c; stroke:none;" d="M75 762L76 763L75 762z"/>
<path style="fill:#6ea8c4; stroke:none;" d="M628 762L629 763L628 762z"/>
<path style="fill:#edb32c; stroke:none;" d="M74 764L75 765L74 764M694 764L695 765L694 764z"/>
<path style="fill:#6ea8c4; stroke:none;" d="M693 765L694 766L693 765z"/>
<path style="fill:#edb32c; stroke:none;" d="M73 766L74 767L73 766z"/>
<path style="fill:#6ea8c4; stroke:none;" d="M692 766L693 767L692 766z"/>
<path style="fill:#edb32c; stroke:none;" d="M72 768L73 769L72 768M71 770L72 771L71 770z"/>
<path style="fill:#6ea8c4; stroke:none;" d="M688 771L689 772L688 771z"/>
<path style="fill:#edb32c; stroke:none;" d="M70 772L71 773L70 772M618 772L619 773L618 772z"/>
<path style="fill:#6ea8c4; stroke:none;" d="M687 772L688 773L687 772M617 773L618 774L617 773M686 773L687 774L686 773z"/>
<path style="fill:#edb32c; stroke:none;" d="M69 774L70 775L69 774z"/>
<path style="fill:#6ea8c4; stroke:none;" d="M616 774L617 775L616 774M685 774L686 775L685 774M615 775L616 776L615 775z"/>
<path style="fill:#edb32c; stroke:none;" d="M68.3333 776.667L68.6667 777.333L68.3333 776.667z"/>
<path style="fill:#6ea8c4; stroke:none;" d="M614 776L615 777L614 776z"/>
<path style="fill:#edb32c; stroke:none;" d="M67 779L68 780L67 779z"/>
<path style="fill:#6ea8c4; stroke:none;" d="M609 780L610 781L609 780z"/>
<path style="fill:#edb32c; stroke:none;" d="M66.3333 781.667L66.6667 782.333L66.3333 781.667z"/>
<path style="fill:#6ea8c4; stroke:none;" d="M608 781L609 782L608 781M607 782L608 783L607 782M678 782L679 783L678 782M677 783L678 784L677 783z"/>
<path style="fill:#edb32c; stroke:none;" d="M65 784L66 785L65 784M604 784L605 785L604 784z"/>
<path style="fill:#6ea8c4; stroke:none;" d="M676 784L677 785L676 784M603 785L604 786L603 785M675 785L676 786L675 785M674 786L675 787L674 786z"/>
<path style="fill:#edb32c; stroke:none;" d="M64.3333 787.667L64.6667 788.333L64.3333 787.667z"/>
<path style="fill:#6ea8c4; stroke:none;" d="M673 787L674 788L673 787M599 788L600 789L599 788M672 788L673 789L672 788M671 789L672 790L671 789z"/>
<path style="fill:#edb32c; stroke:none;" d="M596 790L597 791L596 790z"/>
<path style="fill:#6ea8c4; stroke:none;" d="M670 790L671 791L670 790z"/>
<path style="fill:#edb32c; stroke:none;" d="M63.3333 791.667L63.6667 792.333L63.3333 791.667z"/>
<path style="fill:#6ea8c4; stroke:none;" d="M595 791L596 792L595 791M669 791L670 792L669 791M668 792L669 793L668 792M592 793L593 794L592 793M667 793L668 794L667 793M666 794L667 795L666 794M589 795L590 796L589 795M665 795L666 796L665 795M664 796L665 797L664 796M586 797L587 798L586 797M663 797L664 798L663 797M583 799L584 800L583 799z"/>
<path style="fill:#edb32c; stroke:none;" d="M581 800L582 801L581 800z"/>
<path style="fill:#6ea8c4; stroke:none;" d="M580 801L581 802L580 801z"/>
<path style="fill:#edb32c; stroke:none;" d="M63 802L63 805L64 805L63 802z"/>
<path style="fill:#6ea8c4; stroke:none;" d="M578 802L579 803L578 802M656 803L657 804L656 803M575 804L576 805L575 804M655 804L656 805L655 804M573 805L574 806L573 805M654 805L655 806L654 805z"/>
<path style="fill:#edb32c; stroke:none;" d="M571 806L572 807L571 806z"/>
<path style="fill:#6ea8c4; stroke:none;" d="M653 806L654 807L653 806z"/>
<path style="fill:#edb32c; stroke:none;" d="M64 807L65 808L64 807z"/>
<path style="fill:#6ea8c4; stroke:none;" d="M568 808L569 809L568 808M566 809L567 810L566 809z"/>
<path style="fill:#edb32c; stroke:none;" d="M65 810L66 811L65 810z"/>
<path style="fill:#6ea8c4; stroke:none;" d="M564 810L565 811L564 810M648 810L649 811L648 810z"/>
<path style="fill:#edb32c; stroke:none;" d="M562 811L563 812L562 811z"/>
<path style="fill:#6ea8c4; stroke:none;" d="M647 811L648 812L647 811z"/>
<path style="fill:#edb32c; stroke:none;" d="M66 812L67 813L66 812M560 812L561 813L560 812z"/>
<path style="fill:#6ea8c4; stroke:none;" d="M646 812L647 813L646 812z"/>
<path style="fill:#edb32c; stroke:none;" d="M558 813L559 814L558 813M67 814L68 815L67 814z"/>
<path style="fill:#6ea8c4; stroke:none;" d="M555 815L556 816L555 815M642 815L643 816L642 815z"/>
<path style="fill:#edb32c; stroke:none;" d="M68 816L69 817L68 816z"/>
<path style="fill:#6ea8c4; stroke:none;" d="M553 816L554 817L553 816M641 816L642 817L641 816z"/>
<path style="fill:#edb32c; stroke:none;" d="M69 817L70 818L69 817M550 817L551 818L550 817M548 818L549 819L548 818z"/>
<path style="fill:#6ea8c4; stroke:none;" d="M546 819L547 820L546 819M637 819L638 820L637 819M544 820L545 821L544 820M636 820L637 821L636 820z"/>
<path style="fill:#edb32c; stroke:none;" d="M72 821L73 822L72 821z"/>
<path style="fill:#6ea8c4; stroke:none;" d="M542 821L543 822L542 821z"/>
<path style="fill:#edb32c; stroke:none;" d="M73 822L74 823L73 822z"/>
<path style="fill:#6ea8c4; stroke:none;" d="M540 822L541 823L540 822M633 822L634 823L633 822z"/>
<path style="fill:#edb32c; stroke:none;" d="M74 823L75 824L74 823z"/>
<path style="fill:#6ea8c4; stroke:none;" d="M538 823L539 824L538 823M632 823L633 824L632 823z"/>
<path style="fill:#edb32c; stroke:none;" d="M75 824L76 825L75 824z"/>
<path style="fill:#6ea8c4; stroke:none;" d="M535 824L536 825L535 824M533 825L534 826L533 825M629 825L630 826L629 825M531 826L532 827L531 826M628 826L629 827L628 826z"/>
<path style="fill:#edb32c; stroke:none;" d="M79 827L80 828L79 827z"/>
<path style="fill:#6ea8c4; stroke:none;" d="M528 827L529 828L528 827z"/>
<path style="fill:#edb32c; stroke:none;" d="M80 828L81 829L80 828z"/>
<path style="fill:#6ea8c4; stroke:none;" d="M526 828L527 829L526 828M625 828L626 829L625 828z"/>
<path style="fill:#edb32c; stroke:none;" d="M82 829L83 830L82 829z"/>
<path style="fill:#6ea8c4; stroke:none;" d="M523 829L524 830L523 829z"/>
<path style="fill:#edb32c; stroke:none;" d="M624 829L625 830L624 829M83 830L84 831L83 830z"/>
<path style="fill:#6ea8c4; stroke:none;" d="M521 830L522 831L521 830z"/>
<path style="fill:#edb32c; stroke:none;" d="M85 831L86 832L85 831z"/>
<path style="fill:#6ea8c4; stroke:none;" d="M518 831L519 832L518 831M621 831L622 832L621 831z"/>
<path style="fill:#edb32c; stroke:none;" d="M87 832L88 833L87 832z"/>
<path style="fill:#6ea8c4; stroke:none;" d="M516 832L517 833L516 832z"/>
<path style="fill:#edb32c; stroke:none;" d="M88 833L89 834L88 833z"/>
<path style="fill:#6ea8c4; stroke:none;" d="M513 833L514 834L513 833M618 833L619 834L618 833z"/>
<path style="fill:#edb32c; stroke:none;" d="M90 834L91 835L90 834z"/>
<path style="fill:#6ea8c4; stroke:none;" d="M510 834L511 835L510 834z"/>
<path style="fill:#edb32c; stroke:none;" d="M92.6667 835.333L93.3333 835.667L92.6667 835.333M507 835L508 836L507 835z"/>
<path style="fill:#6ea8c4; stroke:none;" d="M508 835L509 836L508 835M615 835L616 836L615 835z"/>
<path style="fill:#edb32c; stroke:none;" d="M95 836L96 837L95 836z"/>
<path style="fill:#6ea8c4; stroke:none;" d="M505 836L506 837L505 836z"/>
<path style="fill:#edb32c; stroke:none;" d="M97 837L98 838L97 837z"/>
<path style="fill:#6ea8c4; stroke:none;" d="M502 837L503 838L502 837M612 837L613 838L612 837z"/>
<path style="fill:#edb32c; stroke:none;" d="M100 838L101 839L100 838z"/>
<path style="fill:#6ea8c4; stroke:none;" d="M499 838L500 839L499 838z"/>
<path style="fill:#edb32c; stroke:none;" d="M102.667 839.333L103.333 839.667L102.667 839.333z"/>
<path style="fill:#6ea8c4; stroke:none;" d="M496 839L497 840L496 839M609 839L610 840L609 839z"/>
<path style="fill:#edb32c; stroke:none;" d="M105.667 840.333L106.333 840.667L105.667 840.333z"/>
<path style="fill:#6ea8c4; stroke:none;" d="M493 840L494 841L493 840M607 840L608 841L607 840z"/>
<path style="fill:#edb32c; stroke:none;" d="M108.667 841.333L109.333 841.667L108.667 841.333z"/>
<path style="fill:#6ea8c4; stroke:none;" d="M490 841L491 842L490 841z"/>
<path style="fill:#edb32c; stroke:none;" d="M606 841L607 842L606 841M112.667 842.333L113.333 842.667L112.667 842.333z"/>
<path style="fill:#6ea8c4; stroke:none;" d="M487 842L488 843L487 842M604 842L605 843L604 842z"/>
<path style="fill:#edb32c; stroke:none;" d="M115.667 843.333L116.333 843.667L115.667 843.333z"/>
<path style="fill:#6ea8c4; stroke:none;" d="M484 843L485 844L484 843M480.667 844.333L481.333 844.667L480.667 844.333M601 844L602 845L601 844M477 845L478 846L477 845M599 845L600 846L599 845M474 846L475 847L474 846M470.667 847.333L471.333 847.667L470.667 847.333z"/>
<path style="fill:#edb32c; stroke:none;" d="M596 847L597 848L596 847z"/>
<path style="fill:#6ea8c4; stroke:none;" d="M467 848L468 849L467 848M594 848L595 849L594 848M463 849L464 850L463 849M592 849L593 850L592 849M459.667 850.333L460.333 850.667L459.667 850.333z"/>
<path style="fill:#edb32c; stroke:none;" d="M455 851L456 852L455 851z"/>
<path style="fill:#6ea8c4; stroke:none;" d="M456 851L457 852L456 851z"/>
<path style="fill:#edb32c; stroke:none;" d="M589 851L590 852L589 851z"/>
<path style="fill:#6ea8c4; stroke:none;" d="M452 852L453 853L452 852M587 852L588 853L587 852M448 853L449 854L448 853M585 853L586 854L585 853z"/>
<path style="fill:#edb32c; stroke:none;" d="M443 854L444 855L443 854z"/>
<path style="fill:#6ea8c4; stroke:none;" d="M444 854L445 855L444 854M583 854L584 855L583 854z"/>
<path style="fill:#edb32c; stroke:none;" d="M439 855L440 856L439 855z"/>
<path style="fill:#6ea8c4; stroke:none;" d="M440 855L441 856L440 855M581 855L582 856L581 855M435.667 856.333L436.333 856.667L435.667 856.333M579 856L580 857L579 856M431.667 857.333L432.333 857.667L431.667 857.333M577 857L578 858L577 857z"/>
<path style="fill:#edb32c; stroke:none;" d="M426 858L427 859L426 858z"/>
<path style="fill:#6ea8c4; stroke:none;" d="M427 858L428 859L427 858M575 858L576 859L575 858M422.667 859.333L423.333 859.667L422.667 859.333M573 859L574 860L573 859M417.667 860.333L418.333 860.667L417.667 860.333M571 860L572 861L571 860M412.667 861.333L413.333 861.667L412.667 861.333M569 861L570 862L569 861M407.667 862.333L408.333 862.667L407.667 862.333M567 862L568 863L567 862M402.667 863.333L403.333 863.667L402.667 863.333M565 863L566 864L565 863z"/>
<path style="fill:#edb32c; stroke:none;" d="M396 864L397 865L396 864z"/>
<path style="fill:#6ea8c4; stroke:none;" d="M397.667 864.333L398.333 864.667L397.667 864.333z"/>
<path style="fill:#edb32c; stroke:none;" d="M563 864L564 865L563 864z"/>
<path style="fill:#6ea8c4; stroke:none;" d="M391.667 865.333L392.333 865.667L391.667 865.333M560 865L561 866L560 865z"/>
<path style="fill:#edb32c; stroke:none;" d="M385 866L386 867L385 866z"/>
<path style="fill:#6ea8c4; stroke:none;" d="M386.667 866.333L387.333 866.667L386.667 866.333M558 866L559 867L558 866z"/>
<path style="fill:#edb32c; stroke:none;" d="M379 867L380 868L379 867z"/>
<path style="fill:#6ea8c4; stroke:none;" d="M380.667 867.333L381.333 867.667L380.667 867.333M556 867L557 868L556 867M373.667 868.333L374.333 868.667L373.667 868.333M553 868L554 869L553 868z"/>
<path style="fill:#edb32c; stroke:none;" d="M366 869L367 870L366 869z"/>
<path style="fill:#6ea8c4; stroke:none;" d="M367.667 869.333L368.333 869.667L367.667 869.333M551 869L552 870L551 869z"/>
<path style="fill:#edb32c; stroke:none;" d="M359 870L360 871L359 870z"/>
<path style="fill:#6ea8c4; stroke:none;" d="M360.667 870.333L361.333 870.667L360.667 870.333M548 870L549 871L548 870z"/>
<path style="fill:#edb32c; stroke:none;" d="M549 870L550 871L549 870M352 871L353 872L352 871z"/>
<path style="fill:#6ea8c4; stroke:none;" d="M353.667 871.333L354.333 871.667L353.667 871.333M546 871L547 872L546 871z"/>
<path style="fill:#edb32c; stroke:none;" d="M345 872L346 873L345 872z"/>
<path style="fill:#6ea8c4; stroke:none;" d="M346.667 872.333L347.333 872.667L346.667 872.333M543 872L544 873L543 872z"/>
<path style="fill:#edb32c; stroke:none;" d="M544 872L545 873L544 872M337 873L338 874L337 873z"/>
<path style="fill:#6ea8c4; stroke:none;" d="M338.667 873.333L339.333 873.667L338.667 873.333M541 873L542 874L541 873z"/>
<path style="fill:#edb32c; stroke:none;" d="M328.667 874.333L329.333 874.667L328.667 874.333z"/>
<path style="fill:#6ea8c4; stroke:none;" d="M330.667 874.333L331.333 874.667L330.667 874.333M538 874L539 875L538 874z"/>
<path style="fill:#edb32c; stroke:none;" d="M319.667 875.333L320.333 875.667L319.667 875.333z"/>
<path style="fill:#6ea8c4; stroke:none;" d="M321.667 875.333L322.333 875.667L321.667 875.333M535 875L536 876L535 875z"/>
<path style="fill:#edb32c; stroke:none;" d="M309.667 876.333L310.333 876.667L309.667 876.333z"/>
<path style="fill:#6ea8c4; stroke:none;" d="M311 876L311 877L314 877L311 876M532.667 876.333L533.333 876.667L532.667 876.333z"/>
<path style="fill:#edb32c; stroke:none;" d="M298.667 877.333L299.333 877.667L298.667 877.333z"/>
<path style="fill:#6ea8c4; stroke:none;" d="M300 879L304 878L300 879M529.667 877.333L530.333 877.667L529.667 877.333M526.667 878.333L527.333 878.667L526.667 878.333M303 879L304 880L303 879M523.667 879.333L524.333 879.667L523.667 879.333M306 880L307 881L306 880M520 880L521 881L520 880M309.667 881.333L310.333 881.667L309.667 881.333M517 881L518 882L517 881M313 882L314 883L313 882M513.667 882.333L514.333 882.667L513.667 882.333M316.667 883.333L317.333 883.667L316.667 883.333M510 883L511 884L510 883M320.667 884.333L321.333 884.667L320.667 884.333M506 884L507 885L506 884z"/>
<path style="fill:#edb32c; stroke:none;" d="M507 884L508 885L507 884z"/>
<path style="fill:#6ea8c4; stroke:none;" d="M324.667 885.333L325.333 885.667L324.667 885.333M502 885L503 886L502 885z"/>
<path style="fill:#edb32c; stroke:none;" d="M503 885L504 886L503 885z"/>
<path style="fill:#6ea8c4; stroke:none;" d="M328.667 886.333L329.333 886.667L328.667 886.333M498 886L499 887L498 886z"/>
<path style="fill:#edb32c; stroke:none;" d="M499 886L500 887L499 886z"/>
<path style="fill:#6ea8c4; stroke:none;" d="M332.667 887.333L333.333 887.667L332.667 887.333M494 887L495 888L494 887z"/>
<path style="fill:#edb32c; stroke:none;" d="M336 888L337 889L336 888z"/>
<path style="fill:#6ea8c4; stroke:none;" d="M337.667 888.333L338.333 888.667L337.667 888.333M489.667 888.333L490.333 888.667L489.667 888.333z"/>
<path style="fill:#edb32c; stroke:none;" d="M341 889L342 890L341 889z"/>
<path style="fill:#6ea8c4; stroke:none;" d="M342 889L343 890L342 889M484.667 889.333L485.333 889.667L484.667 889.333z"/>
<path style="fill:#edb32c; stroke:none;" d="M346 890L347 891L346 890z"/>
<path style="fill:#6ea8c4; stroke:none;" d="M347.667 890.333L348.333 890.667L347.667 890.333M479.667 890.333L480.333 890.667L479.667 890.333z"/>
<path style="fill:#edb32c; stroke:none;" d="M352 891L353 892L352 891z"/>
<path style="fill:#6ea8c4; stroke:none;" d="M353.667 891.333L354.333 891.667L353.667 891.333M473.667 891.333L474.333 891.667L473.667 891.333z"/>
<path style="fill:#edb32c; stroke:none;" d="M475 891L476 892L475 891M358 892L359 893L358 892z"/>
<path style="fill:#6ea8c4; stroke:none;" d="M359.667 892.333L360.333 892.667L359.667 892.333M466 892L466 893L469 893L466 892z"/>
<path style="fill:#edb32c; stroke:none;" d="M365 893L366 894L365 893z"/>
<path style="fill:#6ea8c4; stroke:none;" d="M366.667 893.333L367.333 893.667L366.667 893.333M459.667 893.333L460.333 893.667L459.667 893.333z"/>
<path style="fill:#edb32c; stroke:none;" d="M461.667 893.333L462.333 893.667L461.667 893.333M373 894L374 895L373 894z"/>
<path style="fill:#6ea8c4; stroke:none;" d="M374 894L374 895L377 895L374 894M450 894L450 895L453 895L450 894z"/>
<path style="fill:#edb32c; stroke:none;" d="M453.667 894.333L454.333 894.667L453.667 894.333M383.667 895.333L384.333 895.667L383.667 895.333z"/>
<path style="fill:#6ea8c4; stroke:none;" d="M385 895L385 896L389 896L385 895M438 895L438 896L442 896L438 895z"/>
<path style="fill:#edb32c; stroke:none;" d="M442.667 895.333L443.333 895.667L442.667 895.333M399 896L399 897L407 897L399 896z"/>
<path style="fill:#6ea8c4; stroke:none;" d="M407 896L407 897L421 897L407 896z"/>
<path style="fill:#edb32c; stroke:none;" d="M421 896L421 897L428 897L421 896z"/>
</svg>
